<mxfile host="65bd71144e">
    <diagram id="B9fbK1pr0Re4MOaUL1AJ" name="Page-1">
        <mxGraphModel dx="2815" dy="-971" grid="1" gridSize="10" guides="1" tooltips="1" connect="1" arrows="1" fold="1" page="1" pageScale="1" pageWidth="827" pageHeight="1169" math="0" shadow="0">
            <root>
                <mxCell id="0"/>
                <mxCell id="1" parent="0"/>
                <mxCell id="90" value="" style="rounded=0;whiteSpace=wrap;html=1;" vertex="1" parent="1">
                    <mxGeometry x="354" y="2741" width="2106" height="1510" as="geometry"/>
                </mxCell>
                <mxCell id="GtMtXowy6BIwULXVPBNg-411" value="Payment" style="shape=table;html=1;whiteSpace=wrap;startSize=30;container=1;collapsible=0;childLayout=tableLayout;fixedRows=1;rowLines=0;fontStyle=1;align=center;" parent="1" vertex="1">
                    <mxGeometry x="390" y="2900" width="400" height="310" as="geometry"/>
                </mxCell>
                <mxCell id="GtMtXowy6BIwULXVPBNg-412" value="" style="shape=partialRectangle;html=1;whiteSpace=wrap;collapsible=0;dropTarget=0;pointerEvents=0;fillColor=none;top=0;left=0;bottom=1;right=0;points=[[0,0.5],[1,0.5]];portConstraint=eastwest;" parent="GtMtXowy6BIwULXVPBNg-411" vertex="1">
                    <mxGeometry y="30" width="400" height="30" as="geometry"/>
                </mxCell>
                <mxCell id="GtMtXowy6BIwULXVPBNg-413" value="PK" style="shape=partialRectangle;html=1;whiteSpace=wrap;connectable=0;fillColor=none;top=0;left=0;bottom=0;right=0;overflow=hidden;" parent="GtMtXowy6BIwULXVPBNg-412" vertex="1">
                    <mxGeometry width="89" height="30" as="geometry">
                        <mxRectangle width="89" height="30" as="alternateBounds"/>
                    </mxGeometry>
                </mxCell>
                <mxCell id="GtMtXowy6BIwULXVPBNg-414" value="&lt;div style=&quot;text-align: center&quot;&gt;&lt;b&gt;int(11) PaymentID&lt;/b&gt;&lt;b&gt;&amp;nbsp;NOT NULL&lt;/b&gt;&lt;/div&gt;" style="shape=partialRectangle;html=1;whiteSpace=wrap;connectable=0;fillColor=none;top=0;left=0;bottom=0;right=0;align=left;spacingLeft=6;overflow=hidden;" parent="GtMtXowy6BIwULXVPBNg-412" vertex="1">
                    <mxGeometry x="89" width="311" height="30" as="geometry">
                        <mxRectangle width="311" height="30" as="alternateBounds"/>
                    </mxGeometry>
                </mxCell>
                <mxCell id="GtMtXowy6BIwULXVPBNg-415" value="" style="shape=partialRectangle;html=1;whiteSpace=wrap;collapsible=0;dropTarget=0;pointerEvents=0;fillColor=none;top=0;left=0;bottom=0;right=0;points=[[0,0.5],[1,0.5]];portConstraint=eastwest;" parent="GtMtXowy6BIwULXVPBNg-411" vertex="1">
                    <mxGeometry y="60" width="400" height="40" as="geometry"/>
                </mxCell>
                <mxCell id="GtMtXowy6BIwULXVPBNg-416" value="FK" style="shape=partialRectangle;html=1;whiteSpace=wrap;connectable=0;fillColor=none;top=0;left=0;bottom=0;right=0;overflow=hidden;" parent="GtMtXowy6BIwULXVPBNg-415" vertex="1">
                    <mxGeometry width="89" height="40" as="geometry">
                        <mxRectangle width="89" height="40" as="alternateBounds"/>
                    </mxGeometry>
                </mxCell>
                <mxCell id="GtMtXowy6BIwULXVPBNg-417" value="int(11) CustomerID NOT NULL" style="shape=partialRectangle;html=1;whiteSpace=wrap;connectable=0;fillColor=none;top=0;left=0;bottom=0;right=0;align=left;spacingLeft=6;overflow=hidden;" parent="GtMtXowy6BIwULXVPBNg-415" vertex="1">
                    <mxGeometry x="89" width="311" height="40" as="geometry">
                        <mxRectangle width="311" height="40" as="alternateBounds"/>
                    </mxGeometry>
                </mxCell>
                <mxCell id="GtMtXowy6BIwULXVPBNg-423" value="" style="shape=partialRectangle;html=1;whiteSpace=wrap;collapsible=0;dropTarget=0;pointerEvents=0;fillColor=none;top=0;left=0;bottom=0;right=0;points=[[0,0.5],[1,0.5]];portConstraint=eastwest;" parent="GtMtXowy6BIwULXVPBNg-411" vertex="1">
                    <mxGeometry y="100" width="400" height="40" as="geometry"/>
                </mxCell>
                <mxCell id="GtMtXowy6BIwULXVPBNg-424" value="FK" style="shape=partialRectangle;html=1;whiteSpace=wrap;connectable=0;fillColor=none;top=0;left=0;bottom=0;right=0;overflow=hidden;" parent="GtMtXowy6BIwULXVPBNg-423" vertex="1">
                    <mxGeometry width="89" height="40" as="geometry">
                        <mxRectangle width="89" height="40" as="alternateBounds"/>
                    </mxGeometry>
                </mxCell>
                <mxCell id="GtMtXowy6BIwULXVPBNg-425" value="int(11) OrderDetailID NOT NULL" style="shape=partialRectangle;html=1;whiteSpace=wrap;connectable=0;fillColor=none;top=0;left=0;bottom=0;right=0;align=left;spacingLeft=6;overflow=hidden;" parent="GtMtXowy6BIwULXVPBNg-423" vertex="1">
                    <mxGeometry x="89" width="311" height="40" as="geometry">
                        <mxRectangle width="311" height="40" as="alternateBounds"/>
                    </mxGeometry>
                </mxCell>
                <mxCell id="GtMtXowy6BIwULXVPBNg-418" value="" style="shape=partialRectangle;html=1;whiteSpace=wrap;collapsible=0;dropTarget=0;pointerEvents=0;fillColor=none;top=0;left=0;bottom=0;right=0;points=[[0,0.5],[1,0.5]];portConstraint=eastwest;" parent="GtMtXowy6BIwULXVPBNg-411" vertex="1">
                    <mxGeometry y="140" width="400" height="40" as="geometry"/>
                </mxCell>
                <mxCell id="GtMtXowy6BIwULXVPBNg-419" value="" style="shape=partialRectangle;html=1;whiteSpace=wrap;connectable=0;fillColor=none;top=0;left=0;bottom=0;right=0;overflow=hidden;" parent="GtMtXowy6BIwULXVPBNg-418" vertex="1">
                    <mxGeometry width="89" height="40" as="geometry">
                        <mxRectangle width="89" height="40" as="alternateBounds"/>
                    </mxGeometry>
                </mxCell>
                <mxCell id="GtMtXowy6BIwULXVPBNg-420" value="varchar(20) PG" style="shape=partialRectangle;html=1;whiteSpace=wrap;connectable=0;fillColor=none;top=0;left=0;bottom=0;right=0;align=left;spacingLeft=6;overflow=hidden;" parent="GtMtXowy6BIwULXVPBNg-418" vertex="1">
                    <mxGeometry x="89" width="311" height="40" as="geometry">
                        <mxRectangle width="311" height="40" as="alternateBounds"/>
                    </mxGeometry>
                </mxCell>
                <mxCell id="GtMtXowy6BIwULXVPBNg-426" value="" style="shape=partialRectangle;html=1;whiteSpace=wrap;collapsible=0;dropTarget=0;pointerEvents=0;fillColor=none;top=0;left=0;bottom=0;right=0;points=[[0,0.5],[1,0.5]];portConstraint=eastwest;" parent="GtMtXowy6BIwULXVPBNg-411" vertex="1">
                    <mxGeometry y="180" width="400" height="40" as="geometry"/>
                </mxCell>
                <mxCell id="GtMtXowy6BIwULXVPBNg-427" value="" style="shape=partialRectangle;html=1;whiteSpace=wrap;connectable=0;fillColor=none;top=0;left=0;bottom=0;right=0;overflow=hidden;" parent="GtMtXowy6BIwULXVPBNg-426" vertex="1">
                    <mxGeometry width="89" height="40" as="geometry">
                        <mxRectangle width="89" height="40" as="alternateBounds"/>
                    </mxGeometry>
                </mxCell>
                <mxCell id="GtMtXowy6BIwULXVPBNg-428" value="varchar(20) PaymentType" style="shape=partialRectangle;html=1;whiteSpace=wrap;connectable=0;fillColor=none;top=0;left=0;bottom=0;right=0;align=left;spacingLeft=6;overflow=hidden;" parent="GtMtXowy6BIwULXVPBNg-426" vertex="1">
                    <mxGeometry x="89" width="311" height="40" as="geometry">
                        <mxRectangle width="311" height="40" as="alternateBounds"/>
                    </mxGeometry>
                </mxCell>
                <mxCell id="GtMtXowy6BIwULXVPBNg-429" value="" style="shape=partialRectangle;html=1;whiteSpace=wrap;collapsible=0;dropTarget=0;pointerEvents=0;fillColor=none;top=0;left=0;bottom=0;right=0;points=[[0,0.5],[1,0.5]];portConstraint=eastwest;" parent="GtMtXowy6BIwULXVPBNg-411" vertex="1">
                    <mxGeometry y="220" width="400" height="40" as="geometry"/>
                </mxCell>
                <mxCell id="GtMtXowy6BIwULXVPBNg-430" value="" style="shape=partialRectangle;html=1;whiteSpace=wrap;connectable=0;fillColor=none;top=0;left=0;bottom=0;right=0;overflow=hidden;" parent="GtMtXowy6BIwULXVPBNg-429" vertex="1">
                    <mxGeometry width="89" height="40" as="geometry">
                        <mxRectangle width="89" height="40" as="alternateBounds"/>
                    </mxGeometry>
                </mxCell>
                <mxCell id="GtMtXowy6BIwULXVPBNg-431" value="date() PaymentDate" style="shape=partialRectangle;html=1;whiteSpace=wrap;connectable=0;fillColor=none;top=0;left=0;bottom=0;right=0;align=left;spacingLeft=6;overflow=hidden;" parent="GtMtXowy6BIwULXVPBNg-429" vertex="1">
                    <mxGeometry x="89" width="311" height="40" as="geometry">
                        <mxRectangle width="311" height="40" as="alternateBounds"/>
                    </mxGeometry>
                </mxCell>
                <mxCell id="GtMtXowy6BIwULXVPBNg-432" value="" style="shape=partialRectangle;html=1;whiteSpace=wrap;collapsible=0;dropTarget=0;pointerEvents=0;fillColor=none;top=0;left=0;bottom=0;right=0;points=[[0,0.5],[1,0.5]];portConstraint=eastwest;" parent="GtMtXowy6BIwULXVPBNg-411" vertex="1">
                    <mxGeometry y="260" width="400" height="40" as="geometry"/>
                </mxCell>
                <mxCell id="GtMtXowy6BIwULXVPBNg-433" value="" style="shape=partialRectangle;html=1;whiteSpace=wrap;connectable=0;fillColor=none;top=0;left=0;bottom=0;right=0;overflow=hidden;" parent="GtMtXowy6BIwULXVPBNg-432" vertex="1">
                    <mxGeometry width="89" height="40" as="geometry">
                        <mxRectangle width="89" height="40" as="alternateBounds"/>
                    </mxGeometry>
                </mxCell>
                <mxCell id="GtMtXowy6BIwULXVPBNg-434" value="int(11) Status" style="shape=partialRectangle;html=1;whiteSpace=wrap;connectable=0;fillColor=none;top=0;left=0;bottom=0;right=0;align=left;spacingLeft=6;overflow=hidden;" parent="GtMtXowy6BIwULXVPBNg-432" vertex="1">
                    <mxGeometry x="89" width="311" height="40" as="geometry">
                        <mxRectangle width="311" height="40" as="alternateBounds"/>
                    </mxGeometry>
                </mxCell>
                <mxCell id="GtMtXowy6BIwULXVPBNg-539" value="Coffee" style="shape=table;html=1;whiteSpace=wrap;startSize=30;container=1;collapsible=0;childLayout=tableLayout;fixedRows=1;rowLines=0;fontStyle=1;align=center;" parent="1" vertex="1">
                    <mxGeometry x="1650" y="2760" width="340" height="200" as="geometry"/>
                </mxCell>
                <mxCell id="GtMtXowy6BIwULXVPBNg-540" value="" style="shape=partialRectangle;html=1;whiteSpace=wrap;collapsible=0;dropTarget=0;pointerEvents=0;fillColor=none;top=0;left=0;bottom=1;right=0;points=[[0,0.5],[1,0.5]];portConstraint=eastwest;" parent="GtMtXowy6BIwULXVPBNg-539" vertex="1">
                    <mxGeometry y="30" width="340" height="30" as="geometry"/>
                </mxCell>
                <mxCell id="GtMtXowy6BIwULXVPBNg-541" value="PK" style="shape=partialRectangle;html=1;whiteSpace=wrap;connectable=0;fillColor=none;top=0;left=0;bottom=0;right=0;overflow=hidden;" parent="GtMtXowy6BIwULXVPBNg-540" vertex="1">
                    <mxGeometry width="76" height="30" as="geometry">
                        <mxRectangle width="76" height="30" as="alternateBounds"/>
                    </mxGeometry>
                </mxCell>
                <mxCell id="GtMtXowy6BIwULXVPBNg-542" value="&lt;b&gt;varchar(20)c&lt;/b&gt;&lt;span style=&quot;font-weight: 700 ; text-align: center&quot;&gt;offee&lt;/span&gt;&lt;b&gt;_id NOT NULL&lt;/b&gt;" style="shape=partialRectangle;html=1;whiteSpace=wrap;connectable=0;fillColor=none;top=0;left=0;bottom=0;right=0;align=left;spacingLeft=6;overflow=hidden;" parent="GtMtXowy6BIwULXVPBNg-540" vertex="1">
                    <mxGeometry x="76" width="264" height="30" as="geometry">
                        <mxRectangle width="264" height="30" as="alternateBounds"/>
                    </mxGeometry>
                </mxCell>
                <mxCell id="GtMtXowy6BIwULXVPBNg-543" value="" style="shape=partialRectangle;html=1;whiteSpace=wrap;collapsible=0;dropTarget=0;pointerEvents=0;fillColor=none;top=0;left=0;bottom=0;right=0;points=[[0,0.5],[1,0.5]];portConstraint=eastwest;" parent="GtMtXowy6BIwULXVPBNg-539" vertex="1">
                    <mxGeometry y="60" width="340" height="30" as="geometry"/>
                </mxCell>
                <mxCell id="GtMtXowy6BIwULXVPBNg-544" value="" style="shape=partialRectangle;html=1;whiteSpace=wrap;connectable=0;fillColor=none;top=0;left=0;bottom=0;right=0;overflow=hidden;" parent="GtMtXowy6BIwULXVPBNg-543" vertex="1">
                    <mxGeometry width="76" height="30" as="geometry">
                        <mxRectangle width="76" height="30" as="alternateBounds"/>
                    </mxGeometry>
                </mxCell>
                <mxCell id="GtMtXowy6BIwULXVPBNg-545" value="varchar(20) ItemImageURL" style="shape=partialRectangle;html=1;whiteSpace=wrap;connectable=0;fillColor=none;top=0;left=0;bottom=0;right=0;align=left;spacingLeft=6;overflow=hidden;" parent="GtMtXowy6BIwULXVPBNg-543" vertex="1">
                    <mxGeometry x="76" width="264" height="30" as="geometry">
                        <mxRectangle width="264" height="30" as="alternateBounds"/>
                    </mxGeometry>
                </mxCell>
                <mxCell id="GtMtXowy6BIwULXVPBNg-546" value="" style="shape=partialRectangle;html=1;whiteSpace=wrap;collapsible=0;dropTarget=0;pointerEvents=0;fillColor=none;top=0;left=0;bottom=0;right=0;points=[[0,0.5],[1,0.5]];portConstraint=eastwest;" parent="GtMtXowy6BIwULXVPBNg-539" vertex="1">
                    <mxGeometry y="90" width="340" height="40" as="geometry"/>
                </mxCell>
                <mxCell id="GtMtXowy6BIwULXVPBNg-547" value="" style="shape=partialRectangle;html=1;whiteSpace=wrap;connectable=0;fillColor=none;top=0;left=0;bottom=0;right=0;overflow=hidden;" parent="GtMtXowy6BIwULXVPBNg-546" vertex="1">
                    <mxGeometry width="76" height="40" as="geometry">
                        <mxRectangle width="76" height="40" as="alternateBounds"/>
                    </mxGeometry>
                </mxCell>
                <mxCell id="GtMtXowy6BIwULXVPBNg-548" value="int Price&amp;nbsp;" style="shape=partialRectangle;html=1;whiteSpace=wrap;connectable=0;fillColor=none;top=0;left=0;bottom=0;right=0;align=left;spacingLeft=6;overflow=hidden;" parent="GtMtXowy6BIwULXVPBNg-546" vertex="1">
                    <mxGeometry x="76" width="264" height="40" as="geometry">
                        <mxRectangle width="264" height="40" as="alternateBounds"/>
                    </mxGeometry>
                </mxCell>
                <mxCell id="GtMtXowy6BIwULXVPBNg-552" value="" style="shape=partialRectangle;html=1;whiteSpace=wrap;collapsible=0;dropTarget=0;pointerEvents=0;fillColor=none;top=0;left=0;bottom=0;right=0;points=[[0,0.5],[1,0.5]];portConstraint=eastwest;" parent="GtMtXowy6BIwULXVPBNg-539" vertex="1">
                    <mxGeometry y="130" width="340" height="30" as="geometry"/>
                </mxCell>
                <mxCell id="GtMtXowy6BIwULXVPBNg-553" value="" style="shape=partialRectangle;html=1;whiteSpace=wrap;connectable=0;fillColor=none;top=0;left=0;bottom=0;right=0;overflow=hidden;" parent="GtMtXowy6BIwULXVPBNg-552" vertex="1">
                    <mxGeometry width="76" height="30" as="geometry">
                        <mxRectangle width="76" height="30" as="alternateBounds"/>
                    </mxGeometry>
                </mxCell>
                <mxCell id="GtMtXowy6BIwULXVPBNg-554" value="varchar(255) Description (음료 부가설명)" style="shape=partialRectangle;html=1;whiteSpace=wrap;connectable=0;fillColor=none;top=0;left=0;bottom=0;right=0;align=left;spacingLeft=6;overflow=hidden;" parent="GtMtXowy6BIwULXVPBNg-552" vertex="1">
                    <mxGeometry x="76" width="264" height="30" as="geometry">
                        <mxRectangle width="264" height="30" as="alternateBounds"/>
                    </mxGeometry>
                </mxCell>
                <mxCell id="GtMtXowy6BIwULXVPBNg-567" value="" style="shape=partialRectangle;html=1;whiteSpace=wrap;collapsible=0;dropTarget=0;pointerEvents=0;fillColor=none;top=0;left=0;bottom=0;right=0;points=[[0,0.5],[1,0.5]];portConstraint=eastwest;" parent="GtMtXowy6BIwULXVPBNg-539" vertex="1">
                    <mxGeometry y="160" width="340" height="30" as="geometry"/>
                </mxCell>
                <mxCell id="GtMtXowy6BIwULXVPBNg-568" value="" style="shape=partialRectangle;html=1;whiteSpace=wrap;connectable=0;fillColor=none;top=0;left=0;bottom=0;right=0;overflow=hidden;" parent="GtMtXowy6BIwULXVPBNg-567" vertex="1">
                    <mxGeometry width="76" height="30" as="geometry">
                        <mxRectangle width="76" height="30" as="alternateBounds"/>
                    </mxGeometry>
                </mxCell>
                <mxCell id="GtMtXowy6BIwULXVPBNg-569" value="varchar(20) Category &lt;br&gt;(Black, White milk, special)&amp;nbsp;" style="shape=partialRectangle;html=1;whiteSpace=wrap;connectable=0;fillColor=none;top=0;left=0;bottom=0;right=0;align=left;spacingLeft=6;overflow=hidden;" parent="GtMtXowy6BIwULXVPBNg-567" vertex="1">
                    <mxGeometry x="76" width="264" height="30" as="geometry">
                        <mxRectangle width="264" height="30" as="alternateBounds"/>
                    </mxGeometry>
                </mxCell>
                <mxCell id="GtMtXowy6BIwULXVPBNg-570" value="NonCoffee" style="shape=table;html=1;whiteSpace=wrap;startSize=30;container=1;collapsible=0;childLayout=tableLayout;fixedRows=1;rowLines=0;fontStyle=1;align=center;" parent="1" vertex="1">
                    <mxGeometry x="1650" y="3000" width="340" height="220" as="geometry"/>
                </mxCell>
                <mxCell id="GtMtXowy6BIwULXVPBNg-571" value="" style="shape=partialRectangle;html=1;whiteSpace=wrap;collapsible=0;dropTarget=0;pointerEvents=0;fillColor=none;top=0;left=0;bottom=1;right=0;points=[[0,0.5],[1,0.5]];portConstraint=eastwest;" parent="GtMtXowy6BIwULXVPBNg-570" vertex="1">
                    <mxGeometry y="30" width="340" height="30" as="geometry"/>
                </mxCell>
                <mxCell id="GtMtXowy6BIwULXVPBNg-572" value="PK" style="shape=partialRectangle;html=1;whiteSpace=wrap;connectable=0;fillColor=none;top=0;left=0;bottom=0;right=0;overflow=hidden;" parent="GtMtXowy6BIwULXVPBNg-571" vertex="1">
                    <mxGeometry width="76" height="30" as="geometry">
                        <mxRectangle width="76" height="30" as="alternateBounds"/>
                    </mxGeometry>
                </mxCell>
                <mxCell id="GtMtXowy6BIwULXVPBNg-573" value="&lt;b&gt;varchar(20)n&lt;/b&gt;&lt;span style=&quot;font-weight: 700 ; text-align: center&quot;&gt;oncoffee&lt;/span&gt;&lt;b&gt;_id NOT NULL&lt;/b&gt;" style="shape=partialRectangle;html=1;whiteSpace=wrap;connectable=0;fillColor=none;top=0;left=0;bottom=0;right=0;align=left;spacingLeft=6;overflow=hidden;" parent="GtMtXowy6BIwULXVPBNg-571" vertex="1">
                    <mxGeometry x="76" width="264" height="30" as="geometry">
                        <mxRectangle width="264" height="30" as="alternateBounds"/>
                    </mxGeometry>
                </mxCell>
                <mxCell id="GtMtXowy6BIwULXVPBNg-920" value="" style="shape=partialRectangle;html=1;whiteSpace=wrap;collapsible=0;dropTarget=0;pointerEvents=0;fillColor=none;top=0;left=0;bottom=0;right=0;points=[[0,0.5],[1,0.5]];portConstraint=eastwest;" parent="GtMtXowy6BIwULXVPBNg-570" vertex="1">
                    <mxGeometry y="60" width="340" height="30" as="geometry"/>
                </mxCell>
                <mxCell id="GtMtXowy6BIwULXVPBNg-921" value="" style="shape=partialRectangle;html=1;whiteSpace=wrap;connectable=0;fillColor=none;top=0;left=0;bottom=0;right=0;overflow=hidden;" parent="GtMtXowy6BIwULXVPBNg-920" vertex="1">
                    <mxGeometry width="76" height="30" as="geometry">
                        <mxRectangle width="76" height="30" as="alternateBounds"/>
                    </mxGeometry>
                </mxCell>
                <mxCell id="GtMtXowy6BIwULXVPBNg-922" value="varchar(20) subNonCoffeeId" style="shape=partialRectangle;html=1;whiteSpace=wrap;connectable=0;fillColor=none;top=0;left=0;bottom=0;right=0;align=left;spacingLeft=6;overflow=hidden;" parent="GtMtXowy6BIwULXVPBNg-920" vertex="1">
                    <mxGeometry x="76" width="264" height="30" as="geometry">
                        <mxRectangle width="264" height="30" as="alternateBounds"/>
                    </mxGeometry>
                </mxCell>
                <mxCell id="GtMtXowy6BIwULXVPBNg-574" value="" style="shape=partialRectangle;html=1;whiteSpace=wrap;collapsible=0;dropTarget=0;pointerEvents=0;fillColor=none;top=0;left=0;bottom=0;right=0;points=[[0,0.5],[1,0.5]];portConstraint=eastwest;" parent="GtMtXowy6BIwULXVPBNg-570" vertex="1">
                    <mxGeometry y="90" width="340" height="30" as="geometry"/>
                </mxCell>
                <mxCell id="GtMtXowy6BIwULXVPBNg-575" value="" style="shape=partialRectangle;html=1;whiteSpace=wrap;connectable=0;fillColor=none;top=0;left=0;bottom=0;right=0;overflow=hidden;" parent="GtMtXowy6BIwULXVPBNg-574" vertex="1">
                    <mxGeometry width="76" height="30" as="geometry">
                        <mxRectangle width="76" height="30" as="alternateBounds"/>
                    </mxGeometry>
                </mxCell>
                <mxCell id="GtMtXowy6BIwULXVPBNg-576" value="varchar(50) itemImageURL" style="shape=partialRectangle;html=1;whiteSpace=wrap;connectable=0;fillColor=none;top=0;left=0;bottom=0;right=0;align=left;spacingLeft=6;overflow=hidden;" parent="GtMtXowy6BIwULXVPBNg-574" vertex="1">
                    <mxGeometry x="76" width="264" height="30" as="geometry">
                        <mxRectangle width="264" height="30" as="alternateBounds"/>
                    </mxGeometry>
                </mxCell>
                <mxCell id="GtMtXowy6BIwULXVPBNg-577" value="" style="shape=partialRectangle;html=1;whiteSpace=wrap;collapsible=0;dropTarget=0;pointerEvents=0;fillColor=none;top=0;left=0;bottom=0;right=0;points=[[0,0.5],[1,0.5]];portConstraint=eastwest;" parent="GtMtXowy6BIwULXVPBNg-570" vertex="1">
                    <mxGeometry y="120" width="340" height="40" as="geometry"/>
                </mxCell>
                <mxCell id="GtMtXowy6BIwULXVPBNg-578" value="" style="shape=partialRectangle;html=1;whiteSpace=wrap;connectable=0;fillColor=none;top=0;left=0;bottom=0;right=0;overflow=hidden;" parent="GtMtXowy6BIwULXVPBNg-577" vertex="1">
                    <mxGeometry width="76" height="40" as="geometry">
                        <mxRectangle width="76" height="40" as="alternateBounds"/>
                    </mxGeometry>
                </mxCell>
                <mxCell id="GtMtXowy6BIwULXVPBNg-579" value="int price&amp;nbsp;" style="shape=partialRectangle;html=1;whiteSpace=wrap;connectable=0;fillColor=none;top=0;left=0;bottom=0;right=0;align=left;spacingLeft=6;overflow=hidden;" parent="GtMtXowy6BIwULXVPBNg-577" vertex="1">
                    <mxGeometry x="76" width="264" height="40" as="geometry">
                        <mxRectangle width="264" height="40" as="alternateBounds"/>
                    </mxGeometry>
                </mxCell>
                <mxCell id="GtMtXowy6BIwULXVPBNg-580" value="" style="shape=partialRectangle;html=1;whiteSpace=wrap;collapsible=0;dropTarget=0;pointerEvents=0;fillColor=none;top=0;left=0;bottom=0;right=0;points=[[0,0.5],[1,0.5]];portConstraint=eastwest;" parent="GtMtXowy6BIwULXVPBNg-570" vertex="1">
                    <mxGeometry y="160" width="340" height="30" as="geometry"/>
                </mxCell>
                <mxCell id="GtMtXowy6BIwULXVPBNg-581" value="" style="shape=partialRectangle;html=1;whiteSpace=wrap;connectable=0;fillColor=none;top=0;left=0;bottom=0;right=0;overflow=hidden;" parent="GtMtXowy6BIwULXVPBNg-580" vertex="1">
                    <mxGeometry width="76" height="30" as="geometry">
                        <mxRectangle width="76" height="30" as="alternateBounds"/>
                    </mxGeometry>
                </mxCell>
                <mxCell id="GtMtXowy6BIwULXVPBNg-582" value="varchar(20) description" style="shape=partialRectangle;html=1;whiteSpace=wrap;connectable=0;fillColor=none;top=0;left=0;bottom=0;right=0;align=left;spacingLeft=6;overflow=hidden;" parent="GtMtXowy6BIwULXVPBNg-580" vertex="1">
                    <mxGeometry x="76" width="264" height="30" as="geometry">
                        <mxRectangle width="264" height="30" as="alternateBounds"/>
                    </mxGeometry>
                </mxCell>
                <mxCell id="GtMtXowy6BIwULXVPBNg-583" value="" style="shape=partialRectangle;html=1;whiteSpace=wrap;collapsible=0;dropTarget=0;pointerEvents=0;fillColor=none;top=0;left=0;bottom=0;right=0;points=[[0,0.5],[1,0.5]];portConstraint=eastwest;" parent="GtMtXowy6BIwULXVPBNg-570" vertex="1">
                    <mxGeometry y="190" width="340" height="20" as="geometry"/>
                </mxCell>
                <mxCell id="GtMtXowy6BIwULXVPBNg-584" value="" style="shape=partialRectangle;html=1;whiteSpace=wrap;connectable=0;fillColor=none;top=0;left=0;bottom=0;right=0;overflow=hidden;" parent="GtMtXowy6BIwULXVPBNg-583" vertex="1">
                    <mxGeometry width="76" height="20" as="geometry">
                        <mxRectangle width="76" height="20" as="alternateBounds"/>
                    </mxGeometry>
                </mxCell>
                <mxCell id="GtMtXowy6BIwULXVPBNg-585" value="varchar(20)&amp;nbsp;category" style="shape=partialRectangle;html=1;whiteSpace=wrap;connectable=0;fillColor=none;top=0;left=0;bottom=0;right=0;align=left;spacingLeft=6;overflow=hidden;" parent="GtMtXowy6BIwULXVPBNg-583" vertex="1">
                    <mxGeometry x="76" width="264" height="20" as="geometry">
                        <mxRectangle width="264" height="20" as="alternateBounds"/>
                    </mxGeometry>
                </mxCell>
                <mxCell id="GtMtXowy6BIwULXVPBNg-586" value="Bread" style="shape=table;html=1;whiteSpace=wrap;startSize=30;container=1;collapsible=0;childLayout=tableLayout;fixedRows=1;rowLines=0;fontStyle=1;align=center;" parent="1" vertex="1">
                    <mxGeometry x="1650" y="3260" width="340" height="210" as="geometry"/>
                </mxCell>
                <mxCell id="GtMtXowy6BIwULXVPBNg-587" value="" style="shape=partialRectangle;html=1;whiteSpace=wrap;collapsible=0;dropTarget=0;pointerEvents=0;fillColor=none;top=0;left=0;bottom=1;right=0;points=[[0,0.5],[1,0.5]];portConstraint=eastwest;" parent="GtMtXowy6BIwULXVPBNg-586" vertex="1">
                    <mxGeometry y="30" width="340" height="30" as="geometry"/>
                </mxCell>
                <mxCell id="GtMtXowy6BIwULXVPBNg-588" value="PK" style="shape=partialRectangle;html=1;whiteSpace=wrap;connectable=0;fillColor=none;top=0;left=0;bottom=0;right=0;overflow=hidden;" parent="GtMtXowy6BIwULXVPBNg-587" vertex="1">
                    <mxGeometry width="76" height="30" as="geometry">
                        <mxRectangle width="76" height="30" as="alternateBounds"/>
                    </mxGeometry>
                </mxCell>
                <mxCell id="GtMtXowy6BIwULXVPBNg-589" value="&lt;b&gt;varchar(20)b&lt;/b&gt;&lt;span style=&quot;font-weight: 700 ; text-align: center&quot;&gt;read&lt;/span&gt;&lt;b&gt;_id NOT NULL&lt;/b&gt;" style="shape=partialRectangle;html=1;whiteSpace=wrap;connectable=0;fillColor=none;top=0;left=0;bottom=0;right=0;align=left;spacingLeft=6;overflow=hidden;" parent="GtMtXowy6BIwULXVPBNg-587" vertex="1">
                    <mxGeometry x="76" width="264" height="30" as="geometry">
                        <mxRectangle width="264" height="30" as="alternateBounds"/>
                    </mxGeometry>
                </mxCell>
                <mxCell id="GtMtXowy6BIwULXVPBNg-923" value="" style="shape=partialRectangle;html=1;whiteSpace=wrap;collapsible=0;dropTarget=0;pointerEvents=0;fillColor=none;top=0;left=0;bottom=0;right=0;points=[[0,0.5],[1,0.5]];portConstraint=eastwest;" parent="GtMtXowy6BIwULXVPBNg-586" vertex="1">
                    <mxGeometry y="60" width="340" height="30" as="geometry"/>
                </mxCell>
                <mxCell id="GtMtXowy6BIwULXVPBNg-924" value="" style="shape=partialRectangle;html=1;whiteSpace=wrap;connectable=0;fillColor=none;top=0;left=0;bottom=0;right=0;overflow=hidden;" parent="GtMtXowy6BIwULXVPBNg-923" vertex="1">
                    <mxGeometry width="76" height="30" as="geometry">
                        <mxRectangle width="76" height="30" as="alternateBounds"/>
                    </mxGeometry>
                </mxCell>
                <mxCell id="GtMtXowy6BIwULXVPBNg-925" value="varchar(20) subBreadId" style="shape=partialRectangle;html=1;whiteSpace=wrap;connectable=0;fillColor=none;top=0;left=0;bottom=0;right=0;align=left;spacingLeft=6;overflow=hidden;" parent="GtMtXowy6BIwULXVPBNg-923" vertex="1">
                    <mxGeometry x="76" width="264" height="30" as="geometry">
                        <mxRectangle width="264" height="30" as="alternateBounds"/>
                    </mxGeometry>
                </mxCell>
                <mxCell id="GtMtXowy6BIwULXVPBNg-590" value="" style="shape=partialRectangle;html=1;whiteSpace=wrap;collapsible=0;dropTarget=0;pointerEvents=0;fillColor=none;top=0;left=0;bottom=0;right=0;points=[[0,0.5],[1,0.5]];portConstraint=eastwest;" parent="GtMtXowy6BIwULXVPBNg-586" vertex="1">
                    <mxGeometry y="90" width="340" height="30" as="geometry"/>
                </mxCell>
                <mxCell id="GtMtXowy6BIwULXVPBNg-591" value="" style="shape=partialRectangle;html=1;whiteSpace=wrap;connectable=0;fillColor=none;top=0;left=0;bottom=0;right=0;overflow=hidden;" parent="GtMtXowy6BIwULXVPBNg-590" vertex="1">
                    <mxGeometry width="76" height="30" as="geometry">
                        <mxRectangle width="76" height="30" as="alternateBounds"/>
                    </mxGeometry>
                </mxCell>
                <mxCell id="GtMtXowy6BIwULXVPBNg-592" value="varchar(50) itemImageURL" style="shape=partialRectangle;html=1;whiteSpace=wrap;connectable=0;fillColor=none;top=0;left=0;bottom=0;right=0;align=left;spacingLeft=6;overflow=hidden;" parent="GtMtXowy6BIwULXVPBNg-590" vertex="1">
                    <mxGeometry x="76" width="264" height="30" as="geometry">
                        <mxRectangle width="264" height="30" as="alternateBounds"/>
                    </mxGeometry>
                </mxCell>
                <mxCell id="GtMtXowy6BIwULXVPBNg-593" value="" style="shape=partialRectangle;html=1;whiteSpace=wrap;collapsible=0;dropTarget=0;pointerEvents=0;fillColor=none;top=0;left=0;bottom=0;right=0;points=[[0,0.5],[1,0.5]];portConstraint=eastwest;" parent="GtMtXowy6BIwULXVPBNg-586" vertex="1">
                    <mxGeometry y="120" width="340" height="20" as="geometry"/>
                </mxCell>
                <mxCell id="GtMtXowy6BIwULXVPBNg-594" value="" style="shape=partialRectangle;html=1;whiteSpace=wrap;connectable=0;fillColor=none;top=0;left=0;bottom=0;right=0;overflow=hidden;" parent="GtMtXowy6BIwULXVPBNg-593" vertex="1">
                    <mxGeometry width="76" height="20" as="geometry">
                        <mxRectangle width="76" height="20" as="alternateBounds"/>
                    </mxGeometry>
                </mxCell>
                <mxCell id="GtMtXowy6BIwULXVPBNg-595" value="int(11) price&amp;nbsp;" style="shape=partialRectangle;html=1;whiteSpace=wrap;connectable=0;fillColor=none;top=0;left=0;bottom=0;right=0;align=left;spacingLeft=6;overflow=hidden;" parent="GtMtXowy6BIwULXVPBNg-593" vertex="1">
                    <mxGeometry x="76" width="264" height="20" as="geometry">
                        <mxRectangle width="264" height="20" as="alternateBounds"/>
                    </mxGeometry>
                </mxCell>
                <mxCell id="GtMtXowy6BIwULXVPBNg-596" value="" style="shape=partialRectangle;html=1;whiteSpace=wrap;collapsible=0;dropTarget=0;pointerEvents=0;fillColor=none;top=0;left=0;bottom=0;right=0;points=[[0,0.5],[1,0.5]];portConstraint=eastwest;" parent="GtMtXowy6BIwULXVPBNg-586" vertex="1">
                    <mxGeometry y="140" width="340" height="30" as="geometry"/>
                </mxCell>
                <mxCell id="GtMtXowy6BIwULXVPBNg-597" value="" style="shape=partialRectangle;html=1;whiteSpace=wrap;connectable=0;fillColor=none;top=0;left=0;bottom=0;right=0;overflow=hidden;" parent="GtMtXowy6BIwULXVPBNg-596" vertex="1">
                    <mxGeometry width="76" height="30" as="geometry">
                        <mxRectangle width="76" height="30" as="alternateBounds"/>
                    </mxGeometry>
                </mxCell>
                <mxCell id="GtMtXowy6BIwULXVPBNg-598" value="varchar(20) description" style="shape=partialRectangle;html=1;whiteSpace=wrap;connectable=0;fillColor=none;top=0;left=0;bottom=0;right=0;align=left;spacingLeft=6;overflow=hidden;" parent="GtMtXowy6BIwULXVPBNg-596" vertex="1">
                    <mxGeometry x="76" width="264" height="30" as="geometry">
                        <mxRectangle width="264" height="30" as="alternateBounds"/>
                    </mxGeometry>
                </mxCell>
                <mxCell id="GtMtXowy6BIwULXVPBNg-599" value="" style="shape=partialRectangle;html=1;whiteSpace=wrap;collapsible=0;dropTarget=0;pointerEvents=0;fillColor=none;top=0;left=0;bottom=0;right=0;points=[[0,0.5],[1,0.5]];portConstraint=eastwest;" parent="GtMtXowy6BIwULXVPBNg-586" vertex="1">
                    <mxGeometry y="170" width="340" height="30" as="geometry"/>
                </mxCell>
                <mxCell id="GtMtXowy6BIwULXVPBNg-600" value="" style="shape=partialRectangle;html=1;whiteSpace=wrap;connectable=0;fillColor=none;top=0;left=0;bottom=0;right=0;overflow=hidden;" parent="GtMtXowy6BIwULXVPBNg-599" vertex="1">
                    <mxGeometry width="76" height="30" as="geometry">
                        <mxRectangle width="76" height="30" as="alternateBounds"/>
                    </mxGeometry>
                </mxCell>
                <mxCell id="GtMtXowy6BIwULXVPBNg-601" value="varchar(20)&amp;nbsp;category" style="shape=partialRectangle;html=1;whiteSpace=wrap;connectable=0;fillColor=none;top=0;left=0;bottom=0;right=0;align=left;spacingLeft=6;overflow=hidden;" parent="GtMtXowy6BIwULXVPBNg-599" vertex="1">
                    <mxGeometry x="76" width="264" height="30" as="geometry">
                        <mxRectangle width="264" height="30" as="alternateBounds"/>
                    </mxGeometry>
                </mxCell>
                <mxCell id="GtMtXowy6BIwULXVPBNg-847" value="Bean" style="shape=table;html=1;whiteSpace=wrap;startSize=30;container=1;collapsible=0;childLayout=tableLayout;fixedRows=1;rowLines=0;fontStyle=1;align=center;" parent="1" vertex="1">
                    <mxGeometry x="1650" y="3507" width="340" height="280" as="geometry"/>
                </mxCell>
                <mxCell id="GtMtXowy6BIwULXVPBNg-848" value="" style="shape=partialRectangle;html=1;whiteSpace=wrap;collapsible=0;dropTarget=0;pointerEvents=0;fillColor=none;top=0;left=0;bottom=1;right=0;points=[[0,0.5],[1,0.5]];portConstraint=eastwest;" parent="GtMtXowy6BIwULXVPBNg-847" vertex="1">
                    <mxGeometry y="30" width="340" height="30" as="geometry"/>
                </mxCell>
                <mxCell id="GtMtXowy6BIwULXVPBNg-849" value="PK" style="shape=partialRectangle;html=1;whiteSpace=wrap;connectable=0;fillColor=none;top=0;left=0;bottom=0;right=0;overflow=hidden;" parent="GtMtXowy6BIwULXVPBNg-848" vertex="1">
                    <mxGeometry width="76" height="30" as="geometry">
                        <mxRectangle width="76" height="30" as="alternateBounds"/>
                    </mxGeometry>
                </mxCell>
                <mxCell id="GtMtXowy6BIwULXVPBNg-850" value="&lt;b&gt;varchar(20)bean_id&lt;/b&gt;&lt;b&gt;&amp;nbsp;NOT NULL&lt;/b&gt;" style="shape=partialRectangle;html=1;whiteSpace=wrap;connectable=0;fillColor=none;top=0;left=0;bottom=0;right=0;align=left;spacingLeft=6;overflow=hidden;" parent="GtMtXowy6BIwULXVPBNg-848" vertex="1">
                    <mxGeometry x="76" width="264" height="30" as="geometry">
                        <mxRectangle width="264" height="30" as="alternateBounds"/>
                    </mxGeometry>
                </mxCell>
                <mxCell id="GtMtXowy6BIwULXVPBNg-857" value="" style="shape=partialRectangle;html=1;whiteSpace=wrap;collapsible=0;dropTarget=0;pointerEvents=0;fillColor=none;top=0;left=0;bottom=0;right=0;points=[[0,0.5],[1,0.5]];portConstraint=eastwest;" parent="GtMtXowy6BIwULXVPBNg-847" vertex="1">
                    <mxGeometry y="60" width="340" height="30" as="geometry"/>
                </mxCell>
                <mxCell id="GtMtXowy6BIwULXVPBNg-858" value="" style="shape=partialRectangle;html=1;whiteSpace=wrap;connectable=0;fillColor=none;top=0;left=0;bottom=0;right=0;overflow=hidden;" parent="GtMtXowy6BIwULXVPBNg-857" vertex="1">
                    <mxGeometry width="76" height="30" as="geometry">
                        <mxRectangle width="76" height="30" as="alternateBounds"/>
                    </mxGeometry>
                </mxCell>
                <mxCell id="GtMtXowy6BIwULXVPBNg-859" value="varchar(50) Origin (지역, 국가)" style="shape=partialRectangle;html=1;whiteSpace=wrap;connectable=0;fillColor=none;top=0;left=0;bottom=0;right=0;align=left;spacingLeft=6;overflow=hidden;" parent="GtMtXowy6BIwULXVPBNg-857" vertex="1">
                    <mxGeometry x="76" width="264" height="30" as="geometry">
                        <mxRectangle width="264" height="30" as="alternateBounds"/>
                    </mxGeometry>
                </mxCell>
                <mxCell id="GtMtXowy6BIwULXVPBNg-860" value="" style="shape=partialRectangle;html=1;whiteSpace=wrap;collapsible=0;dropTarget=0;pointerEvents=0;fillColor=none;top=0;left=0;bottom=0;right=0;points=[[0,0.5],[1,0.5]];portConstraint=eastwest;" parent="GtMtXowy6BIwULXVPBNg-847" vertex="1">
                    <mxGeometry y="90" width="340" height="30" as="geometry"/>
                </mxCell>
                <mxCell id="GtMtXowy6BIwULXVPBNg-861" value="" style="shape=partialRectangle;html=1;whiteSpace=wrap;connectable=0;fillColor=none;top=0;left=0;bottom=0;right=0;overflow=hidden;" parent="GtMtXowy6BIwULXVPBNg-860" vertex="1">
                    <mxGeometry width="76" height="30" as="geometry">
                        <mxRectangle width="76" height="30" as="alternateBounds"/>
                    </mxGeometry>
                </mxCell>
                <mxCell id="GtMtXowy6BIwULXVPBNg-862" value="varchar(50) Farm (실제 농장)&amp;nbsp;" style="shape=partialRectangle;html=1;whiteSpace=wrap;connectable=0;fillColor=none;top=0;left=0;bottom=0;right=0;align=left;spacingLeft=6;overflow=hidden;" parent="GtMtXowy6BIwULXVPBNg-860" vertex="1">
                    <mxGeometry x="76" width="264" height="30" as="geometry">
                        <mxRectangle width="264" height="30" as="alternateBounds"/>
                    </mxGeometry>
                </mxCell>
                <mxCell id="GtMtXowy6BIwULXVPBNg-863" value="" style="shape=partialRectangle;html=1;whiteSpace=wrap;collapsible=0;dropTarget=0;pointerEvents=0;fillColor=none;top=0;left=0;bottom=0;right=0;points=[[0,0.5],[1,0.5]];portConstraint=eastwest;" parent="GtMtXowy6BIwULXVPBNg-847" vertex="1">
                    <mxGeometry y="120" width="340" height="30" as="geometry"/>
                </mxCell>
                <mxCell id="GtMtXowy6BIwULXVPBNg-864" value="" style="shape=partialRectangle;html=1;whiteSpace=wrap;connectable=0;fillColor=none;top=0;left=0;bottom=0;right=0;overflow=hidden;" parent="GtMtXowy6BIwULXVPBNg-863" vertex="1">
                    <mxGeometry width="76" height="30" as="geometry">
                        <mxRectangle width="76" height="30" as="alternateBounds"/>
                    </mxGeometry>
                </mxCell>
                <mxCell id="GtMtXowy6BIwULXVPBNg-865" value="varchar(255) Description (음료 부가설명)" style="shape=partialRectangle;html=1;whiteSpace=wrap;connectable=0;fillColor=none;top=0;left=0;bottom=0;right=0;align=left;spacingLeft=6;overflow=hidden;" parent="GtMtXowy6BIwULXVPBNg-863" vertex="1">
                    <mxGeometry x="76" width="264" height="30" as="geometry">
                        <mxRectangle width="264" height="30" as="alternateBounds"/>
                    </mxGeometry>
                </mxCell>
                <mxCell id="GtMtXowy6BIwULXVPBNg-866" value="" style="shape=partialRectangle;html=1;whiteSpace=wrap;collapsible=0;dropTarget=0;pointerEvents=0;fillColor=none;top=0;left=0;bottom=0;right=0;points=[[0,0.5],[1,0.5]];portConstraint=eastwest;" parent="GtMtXowy6BIwULXVPBNg-847" vertex="1">
                    <mxGeometry y="150" width="340" height="30" as="geometry"/>
                </mxCell>
                <mxCell id="GtMtXowy6BIwULXVPBNg-867" value="" style="shape=partialRectangle;html=1;whiteSpace=wrap;connectable=0;fillColor=none;top=0;left=0;bottom=0;right=0;overflow=hidden;" parent="GtMtXowy6BIwULXVPBNg-866" vertex="1">
                    <mxGeometry width="76" height="30" as="geometry">
                        <mxRectangle width="76" height="30" as="alternateBounds"/>
                    </mxGeometry>
                </mxCell>
                <mxCell id="GtMtXowy6BIwULXVPBNg-868" value="varchar(50) Processing&lt;br&gt;(Netural washed, 원두 가공 방식)" style="shape=partialRectangle;html=1;whiteSpace=wrap;connectable=0;fillColor=none;top=0;left=0;bottom=0;right=0;align=left;spacingLeft=6;overflow=hidden;" parent="GtMtXowy6BIwULXVPBNg-866" vertex="1">
                    <mxGeometry x="76" width="264" height="30" as="geometry">
                        <mxRectangle width="264" height="30" as="alternateBounds"/>
                    </mxGeometry>
                </mxCell>
                <mxCell id="GtMtXowy6BIwULXVPBNg-869" value="" style="shape=partialRectangle;html=1;whiteSpace=wrap;collapsible=0;dropTarget=0;pointerEvents=0;fillColor=none;top=0;left=0;bottom=0;right=0;points=[[0,0.5],[1,0.5]];portConstraint=eastwest;" parent="GtMtXowy6BIwULXVPBNg-847" vertex="1">
                    <mxGeometry y="180" width="340" height="30" as="geometry"/>
                </mxCell>
                <mxCell id="GtMtXowy6BIwULXVPBNg-870" value="" style="shape=partialRectangle;html=1;whiteSpace=wrap;connectable=0;fillColor=none;top=0;left=0;bottom=0;right=0;overflow=hidden;" parent="GtMtXowy6BIwULXVPBNg-869" vertex="1">
                    <mxGeometry width="76" height="30" as="geometry">
                        <mxRectangle width="76" height="30" as="alternateBounds"/>
                    </mxGeometry>
                </mxCell>
                <mxCell id="GtMtXowy6BIwULXVPBNg-871" value="varchar(20) Roasting (볶음 정도, 약배전, 중배전, 강배전)&amp;nbsp;" style="shape=partialRectangle;html=1;whiteSpace=wrap;connectable=0;fillColor=none;top=0;left=0;bottom=0;right=0;align=left;spacingLeft=6;overflow=hidden;" parent="GtMtXowy6BIwULXVPBNg-869" vertex="1">
                    <mxGeometry x="76" width="264" height="30" as="geometry">
                        <mxRectangle width="264" height="30" as="alternateBounds"/>
                    </mxGeometry>
                </mxCell>
                <mxCell id="GtMtXowy6BIwULXVPBNg-872" value="" style="shape=partialRectangle;html=1;whiteSpace=wrap;collapsible=0;dropTarget=0;pointerEvents=0;fillColor=none;top=0;left=0;bottom=0;right=0;points=[[0,0.5],[1,0.5]];portConstraint=eastwest;" parent="GtMtXowy6BIwULXVPBNg-847" vertex="1">
                    <mxGeometry y="210" width="340" height="30" as="geometry"/>
                </mxCell>
                <mxCell id="GtMtXowy6BIwULXVPBNg-873" value="" style="shape=partialRectangle;html=1;whiteSpace=wrap;connectable=0;fillColor=none;top=0;left=0;bottom=0;right=0;overflow=hidden;" parent="GtMtXowy6BIwULXVPBNg-872" vertex="1">
                    <mxGeometry width="76" height="30" as="geometry">
                        <mxRectangle width="76" height="30" as="alternateBounds"/>
                    </mxGeometry>
                </mxCell>
                <mxCell id="GtMtXowy6BIwULXVPBNg-874" value="varchar(20) Kind (품종, 옐로 카투아이)" style="shape=partialRectangle;html=1;whiteSpace=wrap;connectable=0;fillColor=none;top=0;left=0;bottom=0;right=0;align=left;spacingLeft=6;overflow=hidden;" parent="GtMtXowy6BIwULXVPBNg-872" vertex="1">
                    <mxGeometry x="76" width="264" height="30" as="geometry">
                        <mxRectangle width="264" height="30" as="alternateBounds"/>
                    </mxGeometry>
                </mxCell>
                <mxCell id="GtMtXowy6BIwULXVPBNg-875" value="" style="shape=partialRectangle;html=1;whiteSpace=wrap;collapsible=0;dropTarget=0;pointerEvents=0;fillColor=none;top=0;left=0;bottom=0;right=0;points=[[0,0.5],[1,0.5]];portConstraint=eastwest;" parent="GtMtXowy6BIwULXVPBNg-847" vertex="1">
                    <mxGeometry y="240" width="340" height="30" as="geometry"/>
                </mxCell>
                <mxCell id="GtMtXowy6BIwULXVPBNg-876" value="" style="shape=partialRectangle;html=1;whiteSpace=wrap;connectable=0;fillColor=none;top=0;left=0;bottom=0;right=0;overflow=hidden;" parent="GtMtXowy6BIwULXVPBNg-875" vertex="1">
                    <mxGeometry width="76" height="30" as="geometry">
                        <mxRectangle width="76" height="30" as="alternateBounds"/>
                    </mxGeometry>
                </mxCell>
                <mxCell id="GtMtXowy6BIwULXVPBNg-877" value="varchar(20) Grade (등급, G1, AA)" style="shape=partialRectangle;html=1;whiteSpace=wrap;connectable=0;fillColor=none;top=0;left=0;bottom=0;right=0;align=left;spacingLeft=6;overflow=hidden;" parent="GtMtXowy6BIwULXVPBNg-875" vertex="1">
                    <mxGeometry x="76" width="264" height="30" as="geometry">
                        <mxRectangle width="264" height="30" as="alternateBounds"/>
                    </mxGeometry>
                </mxCell>
                <mxCell id="GtMtXowy6BIwULXVPBNg-881" value="BeanCoffee" style="shape=table;html=1;whiteSpace=wrap;startSize=30;container=1;collapsible=0;childLayout=tableLayout;fixedRows=1;rowLines=0;fontStyle=1;align=center;" parent="1" vertex="1">
                    <mxGeometry x="2100" y="3270" width="340" height="140" as="geometry"/>
                </mxCell>
                <mxCell id="GtMtXowy6BIwULXVPBNg-882" value="" style="shape=partialRectangle;html=1;whiteSpace=wrap;collapsible=0;dropTarget=0;pointerEvents=0;fillColor=none;top=0;left=0;bottom=1;right=0;points=[[0,0.5],[1,0.5]];portConstraint=eastwest;" parent="GtMtXowy6BIwULXVPBNg-881" vertex="1">
                    <mxGeometry y="30" width="340" height="30" as="geometry"/>
                </mxCell>
                <mxCell id="GtMtXowy6BIwULXVPBNg-883" value="PK" style="shape=partialRectangle;html=1;whiteSpace=wrap;connectable=0;fillColor=none;top=0;left=0;bottom=0;right=0;overflow=hidden;" parent="GtMtXowy6BIwULXVPBNg-882" vertex="1">
                    <mxGeometry width="76" height="30" as="geometry">
                        <mxRectangle width="76" height="30" as="alternateBounds"/>
                    </mxGeometry>
                </mxCell>
                <mxCell id="GtMtXowy6BIwULXVPBNg-884" value="&lt;b&gt;varchar(20)bean_c&lt;/b&gt;&lt;span style=&quot;font-weight: 700 ; text-align: center&quot;&gt;offee_id&lt;/span&gt;&lt;b&gt;&amp;nbsp;NOT NULL&lt;/b&gt;" style="shape=partialRectangle;html=1;whiteSpace=wrap;connectable=0;fillColor=none;top=0;left=0;bottom=0;right=0;align=left;spacingLeft=6;overflow=hidden;" parent="GtMtXowy6BIwULXVPBNg-882" vertex="1">
                    <mxGeometry x="76" width="264" height="30" as="geometry">
                        <mxRectangle width="264" height="30" as="alternateBounds"/>
                    </mxGeometry>
                </mxCell>
                <mxCell id="GtMtXowy6BIwULXVPBNg-885" value="" style="shape=partialRectangle;html=1;whiteSpace=wrap;collapsible=0;dropTarget=0;pointerEvents=0;fillColor=none;top=0;left=0;bottom=0;right=0;points=[[0,0.5],[1,0.5]];portConstraint=eastwest;" parent="GtMtXowy6BIwULXVPBNg-881" vertex="1">
                    <mxGeometry y="60" width="340" height="30" as="geometry"/>
                </mxCell>
                <mxCell id="GtMtXowy6BIwULXVPBNg-886" value="FK1" style="shape=partialRectangle;html=1;whiteSpace=wrap;connectable=0;fillColor=none;top=0;left=0;bottom=0;right=0;overflow=hidden;" parent="GtMtXowy6BIwULXVPBNg-885" vertex="1">
                    <mxGeometry width="76" height="30" as="geometry">
                        <mxRectangle width="76" height="30" as="alternateBounds"/>
                    </mxGeometry>
                </mxCell>
                <mxCell id="GtMtXowy6BIwULXVPBNg-887" value="varchar(20) coffee_id NOT NULL" style="shape=partialRectangle;html=1;whiteSpace=wrap;connectable=0;fillColor=none;top=0;left=0;bottom=0;right=0;align=left;spacingLeft=6;overflow=hidden;" parent="GtMtXowy6BIwULXVPBNg-885" vertex="1">
                    <mxGeometry x="76" width="264" height="30" as="geometry">
                        <mxRectangle width="264" height="30" as="alternateBounds"/>
                    </mxGeometry>
                </mxCell>
                <mxCell id="GtMtXowy6BIwULXVPBNg-888" value="" style="shape=partialRectangle;html=1;whiteSpace=wrap;collapsible=0;dropTarget=0;pointerEvents=0;fillColor=none;top=0;left=0;bottom=0;right=0;points=[[0,0.5],[1,0.5]];portConstraint=eastwest;" parent="GtMtXowy6BIwULXVPBNg-881" vertex="1">
                    <mxGeometry y="90" width="340" height="40" as="geometry"/>
                </mxCell>
                <mxCell id="GtMtXowy6BIwULXVPBNg-889" value="FK2" style="shape=partialRectangle;html=1;whiteSpace=wrap;connectable=0;fillColor=none;top=0;left=0;bottom=0;right=0;overflow=hidden;" parent="GtMtXowy6BIwULXVPBNg-888" vertex="1">
                    <mxGeometry width="76" height="40" as="geometry">
                        <mxRectangle width="76" height="40" as="alternateBounds"/>
                    </mxGeometry>
                </mxCell>
                <mxCell id="GtMtXowy6BIwULXVPBNg-890" value="varchar(20) bean_id NOT NULL&amp;nbsp;" style="shape=partialRectangle;html=1;whiteSpace=wrap;connectable=0;fillColor=none;top=0;left=0;bottom=0;right=0;align=left;spacingLeft=6;overflow=hidden;" parent="GtMtXowy6BIwULXVPBNg-888" vertex="1">
                    <mxGeometry x="76" width="264" height="40" as="geometry">
                        <mxRectangle width="264" height="40" as="alternateBounds"/>
                    </mxGeometry>
                </mxCell>
                <mxCell id="GtMtXowy6BIwULXVPBNg-915" style="edgeStyle=orthogonalEdgeStyle;rounded=0;orthogonalLoop=1;jettySize=auto;html=1;endArrow=ERzeroToMany;endFill=1;startArrow=ERmandOne;startFill=0;entryX=0;entryY=0.5;entryDx=0;entryDy=0;exitX=1;exitY=0.5;exitDx=0;exitDy=0;" parent="1" source="GtMtXowy6BIwULXVPBNg-848" target="GtMtXowy6BIwULXVPBNg-888" edge="1">
                    <mxGeometry relative="1" as="geometry">
                        <mxPoint x="1850" y="2525" as="targetPoint"/>
                        <mxPoint x="1810" y="2610" as="sourcePoint"/>
                    </mxGeometry>
                </mxCell>
                <mxCell id="GtMtXowy6BIwULXVPBNg-916" style="edgeStyle=orthogonalEdgeStyle;rounded=0;orthogonalLoop=1;jettySize=auto;html=1;endArrow=ERzeroToMany;endFill=1;startArrow=ERmandOne;startFill=0;exitX=1;exitY=0.5;exitDx=0;exitDy=0;entryX=0;entryY=0.5;entryDx=0;entryDy=0;" parent="1" source="GtMtXowy6BIwULXVPBNg-540" target="GtMtXowy6BIwULXVPBNg-885" edge="1">
                    <mxGeometry relative="1" as="geometry">
                        <mxPoint x="900" y="2475" as="targetPoint"/>
                        <mxPoint x="443" y="2445" as="sourcePoint"/>
                    </mxGeometry>
                </mxCell>
                <mxCell id="QwLsGsF6EvyodU2zloT3-29" value="BeanOption" style="shape=table;html=1;whiteSpace=wrap;startSize=30;container=1;collapsible=0;childLayout=tableLayout;fixedRows=1;rowLines=0;fontStyle=1;align=center;" parent="1" vertex="1">
                    <mxGeometry x="455" y="3820" width="270" height="100" as="geometry"/>
                </mxCell>
                <mxCell id="QwLsGsF6EvyodU2zloT3-30" value="" style="shape=partialRectangle;html=1;whiteSpace=wrap;collapsible=0;dropTarget=0;pointerEvents=0;fillColor=none;top=0;left=0;bottom=1;right=0;points=[[0,0.5],[1,0.5]];portConstraint=eastwest;" parent="QwLsGsF6EvyodU2zloT3-29" vertex="1">
                    <mxGeometry y="30" width="270" height="30" as="geometry"/>
                </mxCell>
                <mxCell id="QwLsGsF6EvyodU2zloT3-31" value="PK" style="shape=partialRectangle;html=1;whiteSpace=wrap;connectable=0;fillColor=none;top=0;left=0;bottom=0;right=0;overflow=hidden;" parent="QwLsGsF6EvyodU2zloT3-30" vertex="1">
                    <mxGeometry width="60" height="30" as="geometry">
                        <mxRectangle width="60" height="30" as="alternateBounds"/>
                    </mxGeometry>
                </mxCell>
                <mxCell id="QwLsGsF6EvyodU2zloT3-32" value="&lt;div style=&quot;text-align: center&quot;&gt;&lt;b&gt;int(11) beanOptionID&lt;/b&gt;&lt;b&gt;&amp;nbsp;NOT NULL&lt;/b&gt;&lt;/div&gt;" style="shape=partialRectangle;html=1;whiteSpace=wrap;connectable=0;fillColor=none;top=0;left=0;bottom=0;right=0;align=left;spacingLeft=6;overflow=hidden;" parent="QwLsGsF6EvyodU2zloT3-30" vertex="1">
                    <mxGeometry x="60" width="210" height="30" as="geometry">
                        <mxRectangle width="210" height="30" as="alternateBounds"/>
                    </mxGeometry>
                </mxCell>
                <mxCell id="QwLsGsF6EvyodU2zloT3-33" value="" style="shape=partialRectangle;html=1;whiteSpace=wrap;collapsible=0;dropTarget=0;pointerEvents=0;fillColor=none;top=0;left=0;bottom=0;right=0;points=[[0,0.5],[1,0.5]];portConstraint=eastwest;" parent="QwLsGsF6EvyodU2zloT3-29" vertex="1">
                    <mxGeometry y="60" width="270" height="40" as="geometry"/>
                </mxCell>
                <mxCell id="QwLsGsF6EvyodU2zloT3-34" value="" style="shape=partialRectangle;html=1;whiteSpace=wrap;connectable=0;fillColor=none;top=0;left=0;bottom=0;right=0;overflow=hidden;" parent="QwLsGsF6EvyodU2zloT3-33" vertex="1">
                    <mxGeometry width="60" height="40" as="geometry">
                        <mxRectangle width="60" height="40" as="alternateBounds"/>
                    </mxGeometry>
                </mxCell>
                <mxCell id="QwLsGsF6EvyodU2zloT3-35" value="int grindType NOT NULL" style="shape=partialRectangle;html=1;whiteSpace=wrap;connectable=0;fillColor=none;top=0;left=0;bottom=0;right=0;align=left;spacingLeft=6;overflow=hidden;" parent="QwLsGsF6EvyodU2zloT3-33" vertex="1">
                    <mxGeometry x="60" width="210" height="40" as="geometry">
                        <mxRectangle width="210" height="40" as="alternateBounds"/>
                    </mxGeometry>
                </mxCell>
                <mxCell id="QwLsGsF6EvyodU2zloT3-45" value="Order" style="shape=table;html=1;whiteSpace=wrap;startSize=30;container=1;collapsible=0;childLayout=tableLayout;fixedRows=1;rowLines=0;fontStyle=1;align=center;" parent="1" vertex="1">
                    <mxGeometry x="880" y="3380" width="260" height="120" as="geometry"/>
                </mxCell>
                <mxCell id="QwLsGsF6EvyodU2zloT3-46" value="" style="shape=partialRectangle;html=1;whiteSpace=wrap;collapsible=0;dropTarget=0;pointerEvents=0;fillColor=none;top=0;left=0;bottom=1;right=0;points=[[0,0.5],[1,0.5]];portConstraint=eastwest;" parent="QwLsGsF6EvyodU2zloT3-45" vertex="1">
                    <mxGeometry y="30" width="260" height="30" as="geometry"/>
                </mxCell>
                <mxCell id="QwLsGsF6EvyodU2zloT3-47" value="PK" style="shape=partialRectangle;html=1;whiteSpace=wrap;connectable=0;fillColor=none;top=0;left=0;bottom=0;right=0;overflow=hidden;" parent="QwLsGsF6EvyodU2zloT3-46" vertex="1">
                    <mxGeometry width="56" height="30" as="geometry">
                        <mxRectangle width="56" height="30" as="alternateBounds"/>
                    </mxGeometry>
                </mxCell>
                <mxCell id="QwLsGsF6EvyodU2zloT3-48" value="&lt;div style=&quot;text-align: center&quot;&gt;&lt;b&gt;int(11) OrderID&lt;/b&gt;&lt;b&gt;&amp;nbsp;NOT NULL&lt;/b&gt;&lt;/div&gt;" style="shape=partialRectangle;html=1;whiteSpace=wrap;connectable=0;fillColor=none;top=0;left=0;bottom=0;right=0;align=left;spacingLeft=6;overflow=hidden;" parent="QwLsGsF6EvyodU2zloT3-46" vertex="1">
                    <mxGeometry x="56" width="204" height="30" as="geometry">
                        <mxRectangle width="204" height="30" as="alternateBounds"/>
                    </mxGeometry>
                </mxCell>
                <mxCell id="33" value="" style="shape=partialRectangle;collapsible=0;dropTarget=0;pointerEvents=0;fillColor=none;top=0;left=0;bottom=0;right=0;points=[[0,0.5],[1,0.5]];portConstraint=eastwest;" parent="QwLsGsF6EvyodU2zloT3-45" vertex="1">
                    <mxGeometry y="60" width="260" height="30" as="geometry"/>
                </mxCell>
                <mxCell id="34" value="" style="shape=partialRectangle;connectable=0;fillColor=none;top=0;left=0;bottom=0;right=0;editable=1;overflow=hidden;" parent="33" vertex="1">
                    <mxGeometry width="56" height="30" as="geometry">
                        <mxRectangle width="56" height="30" as="alternateBounds"/>
                    </mxGeometry>
                </mxCell>
                <mxCell id="35" value="userId NOT NULL" style="shape=partialRectangle;connectable=0;fillColor=none;top=0;left=0;bottom=0;right=0;align=left;spacingLeft=6;overflow=hidden;" parent="33" vertex="1">
                    <mxGeometry x="56" width="204" height="30" as="geometry">
                        <mxRectangle width="204" height="30" as="alternateBounds"/>
                    </mxGeometry>
                </mxCell>
                <mxCell id="gBGeZhKP0M9R41ympFXr-114" value="" style="shape=partialRectangle;collapsible=0;dropTarget=0;pointerEvents=0;fillColor=none;top=0;left=0;bottom=0;right=0;points=[[0,0.5],[1,0.5]];portConstraint=eastwest;" parent="QwLsGsF6EvyodU2zloT3-45" vertex="1">
                    <mxGeometry y="90" width="260" height="30" as="geometry"/>
                </mxCell>
                <mxCell id="gBGeZhKP0M9R41ympFXr-115" value="" style="shape=partialRectangle;connectable=0;fillColor=none;top=0;left=0;bottom=0;right=0;editable=1;overflow=hidden;" parent="gBGeZhKP0M9R41ympFXr-114" vertex="1">
                    <mxGeometry width="56" height="30" as="geometry">
                        <mxRectangle width="56" height="30" as="alternateBounds"/>
                    </mxGeometry>
                </mxCell>
                <mxCell id="gBGeZhKP0M9R41ympFXr-116" value="int statusType NOT NULL" style="shape=partialRectangle;connectable=0;fillColor=none;top=0;left=0;bottom=0;right=0;align=left;spacingLeft=6;overflow=hidden;" parent="gBGeZhKP0M9R41ympFXr-114" vertex="1">
                    <mxGeometry x="56" width="204" height="30" as="geometry">
                        <mxRectangle width="204" height="30" as="alternateBounds"/>
                    </mxGeometry>
                </mxCell>
                <mxCell id="QwLsGsF6EvyodU2zloT3-153" value="" style="fontSize=12;html=1;endArrow=ERzeroToMany;startArrow=ERmandOne;entryX=1;entryY=0.5;entryDx=0;entryDy=0;edgeStyle=orthogonalEdgeStyle;exitX=1;exitY=0.5;exitDx=0;exitDy=0;" parent="1" source="QwLsGsF6EvyodU2zloT3-46" target="QwLsGsF6EvyodU2zloT3-194" edge="1">
                    <mxGeometry width="100" height="100" relative="1" as="geometry">
                        <mxPoint x="650" y="4020" as="sourcePoint"/>
                        <mxPoint x="720" y="4380" as="targetPoint"/>
                    </mxGeometry>
                </mxCell>
                <mxCell id="QwLsGsF6EvyodU2zloT3-172" value="DrinkOption" style="shape=table;html=1;whiteSpace=wrap;startSize=30;container=1;collapsible=0;childLayout=tableLayout;fixedRows=1;rowLines=0;fontStyle=1;align=center;" parent="1" vertex="1">
                    <mxGeometry x="1350" y="3860" width="270" height="340" as="geometry"/>
                </mxCell>
                <mxCell id="QwLsGsF6EvyodU2zloT3-173" value="" style="shape=partialRectangle;html=1;whiteSpace=wrap;collapsible=0;dropTarget=0;pointerEvents=0;fillColor=none;top=0;left=0;bottom=1;right=0;points=[[0,0.5],[1,0.5]];portConstraint=eastwest;" parent="QwLsGsF6EvyodU2zloT3-172" vertex="1">
                    <mxGeometry y="30" width="270" height="30" as="geometry"/>
                </mxCell>
                <mxCell id="QwLsGsF6EvyodU2zloT3-174" value="PK" style="shape=partialRectangle;html=1;whiteSpace=wrap;connectable=0;fillColor=none;top=0;left=0;bottom=0;right=0;overflow=hidden;" parent="QwLsGsF6EvyodU2zloT3-173" vertex="1">
                    <mxGeometry width="56" height="30" as="geometry">
                        <mxRectangle width="56" height="30" as="alternateBounds"/>
                    </mxGeometry>
                </mxCell>
                <mxCell id="QwLsGsF6EvyodU2zloT3-175" value="&lt;div style=&quot;text-align: center&quot;&gt;&lt;b&gt;int(11) drinkOptionID&lt;/b&gt;&lt;b&gt;&amp;nbsp;NOT NULL&lt;/b&gt;&lt;/div&gt;" style="shape=partialRectangle;html=1;whiteSpace=wrap;connectable=0;fillColor=none;top=0;left=0;bottom=0;right=0;align=left;spacingLeft=6;overflow=hidden;" parent="QwLsGsF6EvyodU2zloT3-173" vertex="1">
                    <mxGeometry x="56" width="214" height="30" as="geometry">
                        <mxRectangle width="214" height="30" as="alternateBounds"/>
                    </mxGeometry>
                </mxCell>
                <mxCell id="QwLsGsF6EvyodU2zloT3-212" value="" style="shape=partialRectangle;collapsible=0;dropTarget=0;pointerEvents=0;fillColor=none;top=0;left=0;bottom=0;right=0;points=[[0,0.5],[1,0.5]];portConstraint=eastwest;" parent="QwLsGsF6EvyodU2zloT3-172" vertex="1">
                    <mxGeometry y="60" width="270" height="30" as="geometry"/>
                </mxCell>
                <mxCell id="QwLsGsF6EvyodU2zloT3-213" value="" style="shape=partialRectangle;connectable=0;fillColor=none;top=0;left=0;bottom=0;right=0;fontStyle=0;overflow=hidden;" parent="QwLsGsF6EvyodU2zloT3-212" vertex="1">
                    <mxGeometry width="56" height="30" as="geometry">
                        <mxRectangle width="56" height="30" as="alternateBounds"/>
                    </mxGeometry>
                </mxCell>
                <mxCell id="QwLsGsF6EvyodU2zloT3-214" value="int(11) hotOrIced NOT NULL" style="shape=partialRectangle;connectable=0;fillColor=none;top=0;left=0;bottom=0;right=0;align=left;spacingLeft=6;fontStyle=0;overflow=hidden;" parent="QwLsGsF6EvyodU2zloT3-212" vertex="1">
                    <mxGeometry x="56" width="214" height="30" as="geometry">
                        <mxRectangle width="214" height="30" as="alternateBounds"/>
                    </mxGeometry>
                </mxCell>
                <mxCell id="QwLsGsF6EvyodU2zloT3-219" value="" style="shape=partialRectangle;collapsible=0;dropTarget=0;pointerEvents=0;fillColor=none;top=0;left=0;bottom=0;right=0;points=[[0,0.5],[1,0.5]];portConstraint=eastwest;" parent="QwLsGsF6EvyodU2zloT3-172" vertex="1">
                    <mxGeometry y="90" width="270" height="30" as="geometry"/>
                </mxCell>
                <mxCell id="QwLsGsF6EvyodU2zloT3-220" value="" style="shape=partialRectangle;connectable=0;fillColor=none;top=0;left=0;bottom=0;right=0;editable=1;overflow=hidden;" parent="QwLsGsF6EvyodU2zloT3-219" vertex="1">
                    <mxGeometry width="56" height="30" as="geometry">
                        <mxRectangle width="56" height="30" as="alternateBounds"/>
                    </mxGeometry>
                </mxCell>
                <mxCell id="QwLsGsF6EvyodU2zloT3-221" value="CupType cupType NOT NULL" style="shape=partialRectangle;connectable=0;fillColor=none;top=0;left=0;bottom=0;right=0;align=left;spacingLeft=6;overflow=hidden;" parent="QwLsGsF6EvyodU2zloT3-219" vertex="1">
                    <mxGeometry x="56" width="214" height="30" as="geometry">
                        <mxRectangle width="214" height="30" as="alternateBounds"/>
                    </mxGeometry>
                </mxCell>
                <mxCell id="gBGeZhKP0M9R41ympFXr-14" value="" style="shape=partialRectangle;collapsible=0;dropTarget=0;pointerEvents=0;fillColor=none;top=0;left=0;bottom=0;right=0;points=[[0,0.5],[1,0.5]];portConstraint=eastwest;" parent="QwLsGsF6EvyodU2zloT3-172" vertex="1">
                    <mxGeometry y="120" width="270" height="30" as="geometry"/>
                </mxCell>
                <mxCell id="gBGeZhKP0M9R41ympFXr-15" value="" style="shape=partialRectangle;connectable=0;fillColor=none;top=0;left=0;bottom=0;right=0;editable=1;overflow=hidden;" parent="gBGeZhKP0M9R41ympFXr-14" vertex="1">
                    <mxGeometry width="56" height="30" as="geometry">
                        <mxRectangle width="56" height="30" as="alternateBounds"/>
                    </mxGeometry>
                </mxCell>
                <mxCell id="gBGeZhKP0M9R41ympFXr-16" value="int(11) cupSize NOT NULL" style="shape=partialRectangle;connectable=0;fillColor=none;top=0;left=0;bottom=0;right=0;align=left;spacingLeft=6;overflow=hidden;" parent="gBGeZhKP0M9R41ympFXr-14" vertex="1">
                    <mxGeometry x="56" width="214" height="30" as="geometry">
                        <mxRectangle width="214" height="30" as="alternateBounds"/>
                    </mxGeometry>
                </mxCell>
                <mxCell id="gBGeZhKP0M9R41ympFXr-94" value="" style="shape=partialRectangle;collapsible=0;dropTarget=0;pointerEvents=0;fillColor=none;top=0;left=0;bottom=0;right=0;points=[[0,0.5],[1,0.5]];portConstraint=eastwest;" parent="QwLsGsF6EvyodU2zloT3-172" vertex="1">
                    <mxGeometry y="150" width="270" height="30" as="geometry"/>
                </mxCell>
                <mxCell id="gBGeZhKP0M9R41ympFXr-95" value="" style="shape=partialRectangle;connectable=0;fillColor=none;top=0;left=0;bottom=0;right=0;editable=1;overflow=hidden;" parent="gBGeZhKP0M9R41ympFXr-94" vertex="1">
                    <mxGeometry width="56" height="30" as="geometry">
                        <mxRectangle width="56" height="30" as="alternateBounds"/>
                    </mxGeometry>
                </mxCell>
                <mxCell id="gBGeZhKP0M9R41ympFXr-96" value="QuantityType water NOT NULL" style="shape=partialRectangle;connectable=0;fillColor=none;top=0;left=0;bottom=0;right=0;align=left;spacingLeft=6;overflow=hidden;" parent="gBGeZhKP0M9R41ympFXr-94" vertex="1">
                    <mxGeometry x="56" width="214" height="30" as="geometry">
                        <mxRectangle width="214" height="30" as="alternateBounds"/>
                    </mxGeometry>
                </mxCell>
                <mxCell id="gBGeZhKP0M9R41ympFXr-97" value="" style="shape=partialRectangle;collapsible=0;dropTarget=0;pointerEvents=0;fillColor=none;top=0;left=0;bottom=0;right=0;points=[[0,0.5],[1,0.5]];portConstraint=eastwest;" parent="QwLsGsF6EvyodU2zloT3-172" vertex="1">
                    <mxGeometry y="180" width="270" height="30" as="geometry"/>
                </mxCell>
                <mxCell id="gBGeZhKP0M9R41ympFXr-98" value="" style="shape=partialRectangle;connectable=0;fillColor=none;top=0;left=0;bottom=0;right=0;editable=1;overflow=hidden;" parent="gBGeZhKP0M9R41ympFXr-97" vertex="1">
                    <mxGeometry width="56" height="30" as="geometry">
                        <mxRectangle width="56" height="30" as="alternateBounds"/>
                    </mxGeometry>
                </mxCell>
                <mxCell id="gBGeZhKP0M9R41ympFXr-99" value="QuantityType milk NOT NULL" style="shape=partialRectangle;connectable=0;fillColor=none;top=0;left=0;bottom=0;right=0;align=left;spacingLeft=6;overflow=hidden;" parent="gBGeZhKP0M9R41ympFXr-97" vertex="1">
                    <mxGeometry x="56" width="214" height="30" as="geometry">
                        <mxRectangle width="214" height="30" as="alternateBounds"/>
                    </mxGeometry>
                </mxCell>
                <mxCell id="gBGeZhKP0M9R41ympFXr-85" value="" style="shape=partialRectangle;collapsible=0;dropTarget=0;pointerEvents=0;fillColor=none;top=0;left=0;bottom=0;right=0;points=[[0,0.5],[1,0.5]];portConstraint=eastwest;" parent="QwLsGsF6EvyodU2zloT3-172" vertex="1">
                    <mxGeometry y="210" width="270" height="30" as="geometry"/>
                </mxCell>
                <mxCell id="gBGeZhKP0M9R41ympFXr-86" value="" style="shape=partialRectangle;connectable=0;fillColor=none;top=0;left=0;bottom=0;right=0;editable=1;overflow=hidden;" parent="gBGeZhKP0M9R41ympFXr-85" vertex="1">
                    <mxGeometry width="56" height="30" as="geometry">
                        <mxRectangle width="56" height="30" as="alternateBounds"/>
                    </mxGeometry>
                </mxCell>
                <mxCell id="gBGeZhKP0M9R41ympFXr-87" value="QuantityType iced NOT NULL" style="shape=partialRectangle;connectable=0;fillColor=none;top=0;left=0;bottom=0;right=0;align=left;spacingLeft=6;overflow=hidden;" parent="gBGeZhKP0M9R41ympFXr-85" vertex="1">
                    <mxGeometry x="56" width="214" height="30" as="geometry">
                        <mxRectangle width="214" height="30" as="alternateBounds"/>
                    </mxGeometry>
                </mxCell>
                <mxCell id="gBGeZhKP0M9R41ympFXr-88" value="" style="shape=partialRectangle;collapsible=0;dropTarget=0;pointerEvents=0;fillColor=none;top=0;left=0;bottom=0;right=0;points=[[0,0.5],[1,0.5]];portConstraint=eastwest;" parent="QwLsGsF6EvyodU2zloT3-172" vertex="1">
                    <mxGeometry y="240" width="270" height="30" as="geometry"/>
                </mxCell>
                <mxCell id="gBGeZhKP0M9R41ympFXr-89" value="" style="shape=partialRectangle;connectable=0;fillColor=none;top=0;left=0;bottom=0;right=0;editable=1;overflow=hidden;" parent="gBGeZhKP0M9R41ympFXr-88" vertex="1">
                    <mxGeometry width="56" height="30" as="geometry">
                        <mxRectangle width="56" height="30" as="alternateBounds"/>
                    </mxGeometry>
                </mxCell>
                <mxCell id="gBGeZhKP0M9R41ympFXr-90" value="QuantityType hot NOT NULL" style="shape=partialRectangle;connectable=0;fillColor=none;top=0;left=0;bottom=0;right=0;align=left;spacingLeft=6;overflow=hidden;" parent="gBGeZhKP0M9R41ympFXr-88" vertex="1">
                    <mxGeometry x="56" width="214" height="30" as="geometry">
                        <mxRectangle width="214" height="30" as="alternateBounds"/>
                    </mxGeometry>
                </mxCell>
                <mxCell id="gBGeZhKP0M9R41ympFXr-76" value="" style="shape=partialRectangle;collapsible=0;dropTarget=0;pointerEvents=0;fillColor=none;top=0;left=0;bottom=0;right=0;points=[[0,0.5],[1,0.5]];portConstraint=eastwest;" parent="QwLsGsF6EvyodU2zloT3-172" vertex="1">
                    <mxGeometry y="270" width="270" height="30" as="geometry"/>
                </mxCell>
                <mxCell id="gBGeZhKP0M9R41ympFXr-77" value="" style="shape=partialRectangle;connectable=0;fillColor=none;top=0;left=0;bottom=0;right=0;editable=1;overflow=hidden;" parent="gBGeZhKP0M9R41ympFXr-76" vertex="1">
                    <mxGeometry width="56" height="30" as="geometry">
                        <mxRectangle width="56" height="30" as="alternateBounds"/>
                    </mxGeometry>
                </mxCell>
                <mxCell id="gBGeZhKP0M9R41ympFXr-78" value="QuantityType cream NOT NULL" style="shape=partialRectangle;connectable=0;fillColor=none;top=0;left=0;bottom=0;right=0;align=left;spacingLeft=6;overflow=hidden;" parent="gBGeZhKP0M9R41ympFXr-76" vertex="1">
                    <mxGeometry x="56" width="214" height="30" as="geometry">
                        <mxRectangle width="214" height="30" as="alternateBounds"/>
                    </mxGeometry>
                </mxCell>
                <mxCell id="gBGeZhKP0M9R41ympFXr-79" value="" style="shape=partialRectangle;collapsible=0;dropTarget=0;pointerEvents=0;fillColor=none;top=0;left=0;bottom=0;right=0;points=[[0,0.5],[1,0.5]];portConstraint=eastwest;" parent="QwLsGsF6EvyodU2zloT3-172" vertex="1">
                    <mxGeometry y="300" width="270" height="30" as="geometry"/>
                </mxCell>
                <mxCell id="gBGeZhKP0M9R41ympFXr-80" value="" style="shape=partialRectangle;connectable=0;fillColor=none;top=0;left=0;bottom=0;right=0;editable=1;overflow=hidden;" parent="gBGeZhKP0M9R41ympFXr-79" vertex="1">
                    <mxGeometry width="56" height="30" as="geometry">
                        <mxRectangle width="56" height="30" as="alternateBounds"/>
                    </mxGeometry>
                </mxCell>
                <mxCell id="gBGeZhKP0M9R41ympFXr-81" value="varchar memo" style="shape=partialRectangle;connectable=0;fillColor=none;top=0;left=0;bottom=0;right=0;align=left;spacingLeft=6;overflow=hidden;" parent="gBGeZhKP0M9R41ympFXr-79" vertex="1">
                    <mxGeometry x="56" width="214" height="30" as="geometry">
                        <mxRectangle width="214" height="30" as="alternateBounds"/>
                    </mxGeometry>
                </mxCell>
                <mxCell id="QwLsGsF6EvyodU2zloT3-193" value="OrderDetail" style="shape=table;html=1;whiteSpace=wrap;startSize=30;container=1;collapsible=0;childLayout=tableLayout;fixedRows=1;rowLines=0;fontStyle=1;align=center;" parent="1" vertex="1">
                    <mxGeometry x="880" y="3570" width="260" height="310" as="geometry"/>
                </mxCell>
                <mxCell id="QwLsGsF6EvyodU2zloT3-203" value="" style="shape=partialRectangle;collapsible=0;dropTarget=0;pointerEvents=0;fillColor=none;top=0;left=0;bottom=1;right=0;points=[[0,0.5],[1,0.5]];portConstraint=eastwest;" parent="QwLsGsF6EvyodU2zloT3-193" vertex="1">
                    <mxGeometry y="30" width="260" height="30" as="geometry"/>
                </mxCell>
                <mxCell id="QwLsGsF6EvyodU2zloT3-204" value="PK" style="shape=partialRectangle;connectable=0;fillColor=none;top=0;left=0;bottom=0;right=0;fontStyle=1;overflow=hidden;" parent="QwLsGsF6EvyodU2zloT3-203" vertex="1">
                    <mxGeometry width="58" height="30" as="geometry">
                        <mxRectangle width="58" height="30" as="alternateBounds"/>
                    </mxGeometry>
                </mxCell>
                <mxCell id="QwLsGsF6EvyodU2zloT3-205" value="orderDetailID NOT NULL" style="shape=partialRectangle;connectable=0;fillColor=none;top=0;left=0;bottom=0;right=0;align=left;spacingLeft=6;fontStyle=5;overflow=hidden;" parent="QwLsGsF6EvyodU2zloT3-203" vertex="1">
                    <mxGeometry x="58" width="202" height="30" as="geometry">
                        <mxRectangle width="202" height="30" as="alternateBounds"/>
                    </mxGeometry>
                </mxCell>
                <mxCell id="QwLsGsF6EvyodU2zloT3-194" value="" style="shape=partialRectangle;html=1;whiteSpace=wrap;collapsible=0;dropTarget=0;pointerEvents=0;fillColor=none;top=0;left=0;bottom=1;right=0;points=[[0,0.5],[1,0.5]];portConstraint=eastwest;" parent="QwLsGsF6EvyodU2zloT3-193" vertex="1">
                    <mxGeometry y="60" width="260" height="30" as="geometry"/>
                </mxCell>
                <mxCell id="QwLsGsF6EvyodU2zloT3-195" value="FK" style="shape=partialRectangle;html=1;whiteSpace=wrap;connectable=0;fillColor=none;top=0;left=0;bottom=0;right=0;overflow=hidden;" parent="QwLsGsF6EvyodU2zloT3-194" vertex="1">
                    <mxGeometry width="58" height="30" as="geometry">
                        <mxRectangle width="58" height="30" as="alternateBounds"/>
                    </mxGeometry>
                </mxCell>
                <mxCell id="QwLsGsF6EvyodU2zloT3-196" value="&lt;div style=&quot;text-align: center&quot;&gt;int(11) orderID&amp;nbsp;NOT NULL&lt;/div&gt;" style="shape=partialRectangle;html=1;whiteSpace=wrap;connectable=0;fillColor=none;top=0;left=0;bottom=0;right=0;align=left;spacingLeft=6;overflow=hidden;" parent="QwLsGsF6EvyodU2zloT3-194" vertex="1">
                    <mxGeometry x="58" width="202" height="30" as="geometry">
                        <mxRectangle width="202" height="30" as="alternateBounds"/>
                    </mxGeometry>
                </mxCell>
                <mxCell id="QwLsGsF6EvyodU2zloT3-209" value="" style="shape=partialRectangle;collapsible=0;dropTarget=0;pointerEvents=0;fillColor=none;top=0;left=0;bottom=0;right=0;points=[[0,0.5],[1,0.5]];portConstraint=eastwest;" parent="QwLsGsF6EvyodU2zloT3-193" vertex="1">
                    <mxGeometry y="90" width="260" height="30" as="geometry"/>
                </mxCell>
                <mxCell id="QwLsGsF6EvyodU2zloT3-210" value="FK" style="shape=partialRectangle;connectable=0;fillColor=none;top=0;left=0;bottom=0;right=0;fontStyle=0;overflow=hidden;" parent="QwLsGsF6EvyodU2zloT3-209" vertex="1">
                    <mxGeometry width="58" height="30" as="geometry">
                        <mxRectangle width="58" height="30" as="alternateBounds"/>
                    </mxGeometry>
                </mxCell>
                <mxCell id="QwLsGsF6EvyodU2zloT3-211" value="int(11) coffeeID" style="shape=partialRectangle;connectable=0;fillColor=none;top=0;left=0;bottom=0;right=0;align=left;spacingLeft=6;fontStyle=0;overflow=hidden;" parent="QwLsGsF6EvyodU2zloT3-209" vertex="1">
                    <mxGeometry x="58" width="202" height="30" as="geometry">
                        <mxRectangle width="202" height="30" as="alternateBounds"/>
                    </mxGeometry>
                </mxCell>
                <mxCell id="QwLsGsF6EvyodU2zloT3-206" value="" style="shape=partialRectangle;collapsible=0;dropTarget=0;pointerEvents=0;fillColor=none;top=0;left=0;bottom=0;right=0;points=[[0,0.5],[1,0.5]];portConstraint=eastwest;" parent="QwLsGsF6EvyodU2zloT3-193" vertex="1">
                    <mxGeometry y="120" width="260" height="30" as="geometry"/>
                </mxCell>
                <mxCell id="QwLsGsF6EvyodU2zloT3-207" value="FK" style="shape=partialRectangle;connectable=0;fillColor=none;top=0;left=0;bottom=0;right=0;fontStyle=0;overflow=hidden;" parent="QwLsGsF6EvyodU2zloT3-206" vertex="1">
                    <mxGeometry width="58" height="30" as="geometry">
                        <mxRectangle width="58" height="30" as="alternateBounds"/>
                    </mxGeometry>
                </mxCell>
                <mxCell id="QwLsGsF6EvyodU2zloT3-208" value="int(11) nonCoffeeID" style="shape=partialRectangle;connectable=0;fillColor=none;top=0;left=0;bottom=0;right=0;align=left;spacingLeft=6;fontStyle=0;overflow=hidden;" parent="QwLsGsF6EvyodU2zloT3-206" vertex="1">
                    <mxGeometry x="58" width="202" height="30" as="geometry">
                        <mxRectangle width="202" height="30" as="alternateBounds"/>
                    </mxGeometry>
                </mxCell>
                <mxCell id="gBGeZhKP0M9R41ympFXr-19" value="" style="shape=partialRectangle;collapsible=0;dropTarget=0;pointerEvents=0;fillColor=none;top=0;left=0;bottom=0;right=0;points=[[0,0.5],[1,0.5]];portConstraint=eastwest;" parent="QwLsGsF6EvyodU2zloT3-193" vertex="1">
                    <mxGeometry y="150" width="260" height="30" as="geometry"/>
                </mxCell>
                <mxCell id="gBGeZhKP0M9R41ympFXr-20" value="FK" style="shape=partialRectangle;connectable=0;fillColor=none;top=0;left=0;bottom=0;right=0;fontStyle=0;overflow=hidden;" parent="gBGeZhKP0M9R41ympFXr-19" vertex="1">
                    <mxGeometry width="58" height="30" as="geometry">
                        <mxRectangle width="58" height="30" as="alternateBounds"/>
                    </mxGeometry>
                </mxCell>
                <mxCell id="gBGeZhKP0M9R41ympFXr-21" value="int(11) breadID" style="shape=partialRectangle;connectable=0;fillColor=none;top=0;left=0;bottom=0;right=0;align=left;spacingLeft=6;fontStyle=0;overflow=hidden;" parent="gBGeZhKP0M9R41ympFXr-19" vertex="1">
                    <mxGeometry x="58" width="202" height="30" as="geometry">
                        <mxRectangle width="202" height="30" as="alternateBounds"/>
                    </mxGeometry>
                </mxCell>
                <mxCell id="QwLsGsF6EvyodU2zloT3-197" value="" style="shape=partialRectangle;html=1;whiteSpace=wrap;collapsible=0;dropTarget=0;pointerEvents=0;fillColor=none;top=0;left=0;bottom=1;right=0;points=[[0,0.5],[1,0.5]];portConstraint=eastwest;" parent="QwLsGsF6EvyodU2zloT3-193" vertex="1">
                    <mxGeometry y="180" width="260" height="30" as="geometry"/>
                </mxCell>
                <mxCell id="QwLsGsF6EvyodU2zloT3-198" value="FK" style="shape=partialRectangle;html=1;whiteSpace=wrap;connectable=0;fillColor=none;top=0;left=0;bottom=0;right=0;overflow=hidden;" parent="QwLsGsF6EvyodU2zloT3-197" vertex="1">
                    <mxGeometry width="58" height="30" as="geometry">
                        <mxRectangle width="58" height="30" as="alternateBounds"/>
                    </mxGeometry>
                </mxCell>
                <mxCell id="QwLsGsF6EvyodU2zloT3-199" value="&lt;div style=&quot;text-align: center&quot;&gt;int(11) beanID&lt;/div&gt;" style="shape=partialRectangle;html=1;whiteSpace=wrap;connectable=0;fillColor=none;top=0;left=0;bottom=0;right=0;align=left;spacingLeft=6;overflow=hidden;" parent="QwLsGsF6EvyodU2zloT3-197" vertex="1">
                    <mxGeometry x="58" width="202" height="30" as="geometry">
                        <mxRectangle width="202" height="30" as="alternateBounds"/>
                    </mxGeometry>
                </mxCell>
                <mxCell id="QwLsGsF6EvyodU2zloT3-200" value="" style="shape=partialRectangle;html=1;whiteSpace=wrap;collapsible=0;dropTarget=0;pointerEvents=0;fillColor=none;top=0;left=0;bottom=0;right=0;points=[[0,0.5],[1,0.5]];portConstraint=eastwest;" parent="QwLsGsF6EvyodU2zloT3-193" vertex="1">
                    <mxGeometry y="210" width="260" height="40" as="geometry"/>
                </mxCell>
                <mxCell id="QwLsGsF6EvyodU2zloT3-201" value="FK" style="shape=partialRectangle;html=1;whiteSpace=wrap;connectable=0;fillColor=none;top=0;left=0;bottom=0;right=0;overflow=hidden;" parent="QwLsGsF6EvyodU2zloT3-200" vertex="1">
                    <mxGeometry width="58" height="40" as="geometry">
                        <mxRectangle width="58" height="40" as="alternateBounds"/>
                    </mxGeometry>
                </mxCell>
                <mxCell id="QwLsGsF6EvyodU2zloT3-202" value="&lt;span&gt;int(11) drinkOption&lt;/span&gt;" style="shape=partialRectangle;html=1;whiteSpace=wrap;connectable=0;fillColor=none;top=0;left=0;bottom=0;right=0;align=left;spacingLeft=6;overflow=hidden;" parent="QwLsGsF6EvyodU2zloT3-200" vertex="1">
                    <mxGeometry x="58" width="202" height="40" as="geometry">
                        <mxRectangle width="202" height="40" as="alternateBounds"/>
                    </mxGeometry>
                </mxCell>
                <mxCell id="gBGeZhKP0M9R41ympFXr-1" value="" style="shape=partialRectangle;collapsible=0;dropTarget=0;pointerEvents=0;fillColor=none;top=0;left=0;bottom=0;right=0;points=[[0,0.5],[1,0.5]];portConstraint=eastwest;" parent="QwLsGsF6EvyodU2zloT3-193" vertex="1">
                    <mxGeometry y="250" width="260" height="30" as="geometry"/>
                </mxCell>
                <mxCell id="gBGeZhKP0M9R41ympFXr-2" value="FK" style="shape=partialRectangle;connectable=0;fillColor=none;top=0;left=0;bottom=0;right=0;fontStyle=0;overflow=hidden;" parent="gBGeZhKP0M9R41ympFXr-1" vertex="1">
                    <mxGeometry width="58" height="30" as="geometry">
                        <mxRectangle width="58" height="30" as="alternateBounds"/>
                    </mxGeometry>
                </mxCell>
                <mxCell id="gBGeZhKP0M9R41ympFXr-3" value="int(11) breakOption" style="shape=partialRectangle;connectable=0;fillColor=none;top=0;left=0;bottom=0;right=0;align=left;spacingLeft=6;fontStyle=0;overflow=hidden;" parent="gBGeZhKP0M9R41ympFXr-1" vertex="1">
                    <mxGeometry x="58" width="202" height="30" as="geometry">
                        <mxRectangle width="202" height="30" as="alternateBounds"/>
                    </mxGeometry>
                </mxCell>
                <mxCell id="gBGeZhKP0M9R41ympFXr-22" value="" style="shape=partialRectangle;collapsible=0;dropTarget=0;pointerEvents=0;fillColor=none;top=0;left=0;bottom=0;right=0;points=[[0,0.5],[1,0.5]];portConstraint=eastwest;" parent="QwLsGsF6EvyodU2zloT3-193" vertex="1">
                    <mxGeometry y="280" width="260" height="30" as="geometry"/>
                </mxCell>
                <mxCell id="gBGeZhKP0M9R41ympFXr-23" value="FK" style="shape=partialRectangle;connectable=0;fillColor=none;top=0;left=0;bottom=0;right=0;fontStyle=0;overflow=hidden;" parent="gBGeZhKP0M9R41ympFXr-22" vertex="1">
                    <mxGeometry width="58" height="30" as="geometry">
                        <mxRectangle width="58" height="30" as="alternateBounds"/>
                    </mxGeometry>
                </mxCell>
                <mxCell id="gBGeZhKP0M9R41ympFXr-24" value="int(11) beanOption" style="shape=partialRectangle;connectable=0;fillColor=none;top=0;left=0;bottom=0;right=0;align=left;spacingLeft=6;fontStyle=0;overflow=hidden;" parent="gBGeZhKP0M9R41ympFXr-22" vertex="1">
                    <mxGeometry x="58" width="202" height="30" as="geometry">
                        <mxRectangle width="202" height="30" as="alternateBounds"/>
                    </mxGeometry>
                </mxCell>
                <mxCell id="gBGeZhKP0M9R41ympFXr-4" value="BreadOption" style="shape=table;html=1;whiteSpace=wrap;startSize=30;container=1;collapsible=0;childLayout=tableLayout;fixedRows=1;rowLines=0;fontStyle=1;align=center;" parent="1" vertex="1">
                    <mxGeometry x="455" y="3660" width="270" height="130" as="geometry"/>
                </mxCell>
                <mxCell id="gBGeZhKP0M9R41ympFXr-5" value="" style="shape=partialRectangle;html=1;whiteSpace=wrap;collapsible=0;dropTarget=0;pointerEvents=0;fillColor=none;top=0;left=0;bottom=1;right=0;points=[[0,0.5],[1,0.5]];portConstraint=eastwest;" parent="gBGeZhKP0M9R41ympFXr-4" vertex="1">
                    <mxGeometry y="30" width="270" height="30" as="geometry"/>
                </mxCell>
                <mxCell id="gBGeZhKP0M9R41ympFXr-6" value="PK" style="shape=partialRectangle;html=1;whiteSpace=wrap;connectable=0;fillColor=none;top=0;left=0;bottom=0;right=0;overflow=hidden;" parent="gBGeZhKP0M9R41ympFXr-5" vertex="1">
                    <mxGeometry width="57" height="30" as="geometry">
                        <mxRectangle width="57" height="30" as="alternateBounds"/>
                    </mxGeometry>
                </mxCell>
                <mxCell id="gBGeZhKP0M9R41ympFXr-7" value="&lt;div style=&quot;text-align: center&quot;&gt;&lt;b&gt;int(11) bread&lt;/b&gt;&lt;b&gt;OptionID&lt;/b&gt;&lt;b&gt;&amp;nbsp;NOT NULL&lt;/b&gt;&lt;/div&gt;" style="shape=partialRectangle;html=1;whiteSpace=wrap;connectable=0;fillColor=none;top=0;left=0;bottom=0;right=0;align=left;spacingLeft=6;overflow=hidden;" parent="gBGeZhKP0M9R41ympFXr-5" vertex="1">
                    <mxGeometry x="57" width="213" height="30" as="geometry">
                        <mxRectangle width="213" height="30" as="alternateBounds"/>
                    </mxGeometry>
                </mxCell>
                <mxCell id="gBGeZhKP0M9R41ympFXr-8" value="" style="shape=partialRectangle;collapsible=0;dropTarget=0;pointerEvents=0;fillColor=none;top=0;left=0;bottom=0;right=0;points=[[0,0.5],[1,0.5]];portConstraint=eastwest;" parent="gBGeZhKP0M9R41ympFXr-4" vertex="1">
                    <mxGeometry y="60" width="270" height="30" as="geometry"/>
                </mxCell>
                <mxCell id="gBGeZhKP0M9R41ympFXr-9" value="FK" style="shape=partialRectangle;connectable=0;fillColor=none;top=0;left=0;bottom=0;right=0;fontStyle=0;overflow=hidden;" parent="gBGeZhKP0M9R41ympFXr-8" vertex="1">
                    <mxGeometry width="57" height="30" as="geometry">
                        <mxRectangle width="57" height="30" as="alternateBounds"/>
                    </mxGeometry>
                </mxCell>
                <mxCell id="gBGeZhKP0M9R41ympFXr-10" value="int hereOrToGo NOT NULL" style="shape=partialRectangle;connectable=0;fillColor=none;top=0;left=0;bottom=0;right=0;align=left;spacingLeft=6;fontStyle=0;overflow=hidden;" parent="gBGeZhKP0M9R41ympFXr-8" vertex="1">
                    <mxGeometry x="57" width="213" height="30" as="geometry">
                        <mxRectangle width="213" height="30" as="alternateBounds"/>
                    </mxGeometry>
                </mxCell>
                <mxCell id="gBGeZhKP0M9R41ympFXr-11" value="" style="shape=partialRectangle;collapsible=0;dropTarget=0;pointerEvents=0;fillColor=none;top=0;left=0;bottom=0;right=0;points=[[0,0.5],[1,0.5]];portConstraint=eastwest;" parent="gBGeZhKP0M9R41ympFXr-4" vertex="1">
                    <mxGeometry y="90" width="270" height="30" as="geometry"/>
                </mxCell>
                <mxCell id="gBGeZhKP0M9R41ympFXr-12" value="" style="shape=partialRectangle;connectable=0;fillColor=none;top=0;left=0;bottom=0;right=0;editable=1;overflow=hidden;" parent="gBGeZhKP0M9R41ympFXr-11" vertex="1">
                    <mxGeometry width="57" height="30" as="geometry">
                        <mxRectangle width="57" height="30" as="alternateBounds"/>
                    </mxGeometry>
                </mxCell>
                <mxCell id="gBGeZhKP0M9R41ympFXr-13" value="int forkCount NOT NULL" style="shape=partialRectangle;connectable=0;fillColor=none;top=0;left=0;bottom=0;right=0;align=left;spacingLeft=6;overflow=hidden;" parent="gBGeZhKP0M9R41ympFXr-11" vertex="1">
                    <mxGeometry x="57" width="213" height="30" as="geometry">
                        <mxRectangle width="213" height="30" as="alternateBounds"/>
                    </mxGeometry>
                </mxCell>
                <mxCell id="gBGeZhKP0M9R41ympFXr-17" value="" style="edgeStyle=orthogonalEdgeStyle;fontSize=12;html=1;endArrow=ERzeroToOne;startArrow=ERmandOne;entryX=0;entryY=0.5;entryDx=0;entryDy=0;exitX=1;exitY=0.5;exitDx=0;exitDy=0;" parent="1" source="QwLsGsF6EvyodU2zloT3-200" target="QwLsGsF6EvyodU2zloT3-173" edge="1">
                    <mxGeometry width="100" height="100" relative="1" as="geometry">
                        <mxPoint x="680" y="4500" as="sourcePoint"/>
                        <mxPoint x="780" y="4400" as="targetPoint"/>
                    </mxGeometry>
                </mxCell>
                <mxCell id="gBGeZhKP0M9R41ympFXr-18" value="" style="edgeStyle=orthogonalEdgeStyle;fontSize=12;html=1;endArrow=ERzeroToOne;startArrow=ERmandOne;entryX=1;entryY=0.5;entryDx=0;entryDy=0;exitX=0;exitY=0.5;exitDx=0;exitDy=0;" parent="1" source="gBGeZhKP0M9R41ympFXr-1" target="gBGeZhKP0M9R41ympFXr-5" edge="1">
                    <mxGeometry width="100" height="100" relative="1" as="geometry">
                        <mxPoint x="755" y="4280" as="sourcePoint"/>
                        <mxPoint x="855" y="4125" as="targetPoint"/>
                    </mxGeometry>
                </mxCell>
                <mxCell id="gBGeZhKP0M9R41ympFXr-25" value="" style="edgeStyle=orthogonalEdgeStyle;fontSize=12;html=1;endArrow=ERzeroToOne;startArrow=ERmandOne;entryX=1;entryY=0.5;entryDx=0;entryDy=0;exitX=0;exitY=0.5;exitDx=0;exitDy=0;" parent="1" source="gBGeZhKP0M9R41ympFXr-22" target="QwLsGsF6EvyodU2zloT3-30" edge="1">
                    <mxGeometry width="100" height="100" relative="1" as="geometry">
                        <mxPoint x="755" y="4345" as="sourcePoint"/>
                        <mxPoint x="910" y="4315" as="targetPoint"/>
                    </mxGeometry>
                </mxCell>
                <mxCell id="gBGeZhKP0M9R41ympFXr-26" value="SyrupOption" style="shape=table;startSize=30;container=1;collapsible=1;childLayout=tableLayout;fixedRows=1;rowLines=0;fontStyle=1;align=center;resizeLast=1;" parent="1" vertex="1">
                    <mxGeometry x="1711" y="3860" width="239" height="160" as="geometry"/>
                </mxCell>
                <mxCell id="gBGeZhKP0M9R41ympFXr-27" value="" style="shape=partialRectangle;collapsible=0;dropTarget=0;pointerEvents=0;fillColor=none;top=0;left=0;bottom=1;right=0;points=[[0,0.5],[1,0.5]];portConstraint=eastwest;" parent="gBGeZhKP0M9R41ympFXr-26" vertex="1">
                    <mxGeometry y="30" width="239" height="30" as="geometry"/>
                </mxCell>
                <mxCell id="gBGeZhKP0M9R41ympFXr-28" value="PK" style="shape=partialRectangle;connectable=0;fillColor=none;top=0;left=0;bottom=0;right=0;fontStyle=1;overflow=hidden;" parent="gBGeZhKP0M9R41ympFXr-27" vertex="1">
                    <mxGeometry width="30" height="30" as="geometry">
                        <mxRectangle width="30" height="30" as="alternateBounds"/>
                    </mxGeometry>
                </mxCell>
                <mxCell id="gBGeZhKP0M9R41ympFXr-29" value="int(11) syrupOptionID NOT NULL" style="shape=partialRectangle;connectable=0;fillColor=none;top=0;left=0;bottom=0;right=0;align=left;spacingLeft=6;fontStyle=5;overflow=hidden;" parent="gBGeZhKP0M9R41ympFXr-27" vertex="1">
                    <mxGeometry x="30" width="209" height="30" as="geometry">
                        <mxRectangle width="209" height="30" as="alternateBounds"/>
                    </mxGeometry>
                </mxCell>
                <mxCell id="gBGeZhKP0M9R41ympFXr-70" value="" style="shape=partialRectangle;collapsible=0;dropTarget=0;pointerEvents=0;fillColor=none;top=0;left=0;bottom=0;right=0;points=[[0,0.5],[1,0.5]];portConstraint=eastwest;" parent="gBGeZhKP0M9R41ympFXr-26" vertex="1">
                    <mxGeometry y="60" width="239" height="30" as="geometry"/>
                </mxCell>
                <mxCell id="gBGeZhKP0M9R41ympFXr-71" value="FK" style="shape=partialRectangle;connectable=0;fillColor=none;top=0;left=0;bottom=0;right=0;fontStyle=0;overflow=hidden;" parent="gBGeZhKP0M9R41ympFXr-70" vertex="1">
                    <mxGeometry width="30" height="30" as="geometry">
                        <mxRectangle width="30" height="30" as="alternateBounds"/>
                    </mxGeometry>
                </mxCell>
                <mxCell id="gBGeZhKP0M9R41ympFXr-72" value="int(11) drinkOptionID NOT NULL" style="shape=partialRectangle;connectable=0;fillColor=none;top=0;left=0;bottom=0;right=0;align=left;spacingLeft=6;fontStyle=0;overflow=hidden;" parent="gBGeZhKP0M9R41ympFXr-70" vertex="1">
                    <mxGeometry x="30" width="209" height="30" as="geometry">
                        <mxRectangle width="209" height="30" as="alternateBounds"/>
                    </mxGeometry>
                </mxCell>
                <mxCell id="gBGeZhKP0M9R41ympFXr-30" value="" style="shape=partialRectangle;collapsible=0;dropTarget=0;pointerEvents=0;fillColor=none;top=0;left=0;bottom=0;right=0;points=[[0,0.5],[1,0.5]];portConstraint=eastwest;" parent="gBGeZhKP0M9R41ympFXr-26" vertex="1">
                    <mxGeometry y="90" width="239" height="30" as="geometry"/>
                </mxCell>
                <mxCell id="gBGeZhKP0M9R41ympFXr-31" value="" style="shape=partialRectangle;connectable=0;fillColor=none;top=0;left=0;bottom=0;right=0;editable=1;overflow=hidden;" parent="gBGeZhKP0M9R41ympFXr-30" vertex="1">
                    <mxGeometry width="30" height="30" as="geometry">
                        <mxRectangle width="30" height="30" as="alternateBounds"/>
                    </mxGeometry>
                </mxCell>
                <mxCell id="gBGeZhKP0M9R41ympFXr-32" value="int syrupType NOT NULL" style="shape=partialRectangle;connectable=0;fillColor=none;top=0;left=0;bottom=0;right=0;align=left;spacingLeft=6;overflow=hidden;" parent="gBGeZhKP0M9R41ympFXr-30" vertex="1">
                    <mxGeometry x="30" width="209" height="30" as="geometry">
                        <mxRectangle width="209" height="30" as="alternateBounds"/>
                    </mxGeometry>
                </mxCell>
                <mxCell id="gBGeZhKP0M9R41ympFXr-33" value="" style="shape=partialRectangle;collapsible=0;dropTarget=0;pointerEvents=0;fillColor=none;top=0;left=0;bottom=0;right=0;points=[[0,0.5],[1,0.5]];portConstraint=eastwest;" parent="gBGeZhKP0M9R41ympFXr-26" vertex="1">
                    <mxGeometry y="120" width="239" height="30" as="geometry"/>
                </mxCell>
                <mxCell id="gBGeZhKP0M9R41ympFXr-34" value="" style="shape=partialRectangle;connectable=0;fillColor=none;top=0;left=0;bottom=0;right=0;editable=1;overflow=hidden;" parent="gBGeZhKP0M9R41ympFXr-33" vertex="1">
                    <mxGeometry width="30" height="30" as="geometry">
                        <mxRectangle width="30" height="30" as="alternateBounds"/>
                    </mxGeometry>
                </mxCell>
                <mxCell id="gBGeZhKP0M9R41ympFXr-35" value="int syrupCount NOT NULL" style="shape=partialRectangle;connectable=0;fillColor=none;top=0;left=0;bottom=0;right=0;align=left;spacingLeft=6;overflow=hidden;" parent="gBGeZhKP0M9R41ympFXr-33" vertex="1">
                    <mxGeometry x="30" width="209" height="30" as="geometry">
                        <mxRectangle width="209" height="30" as="alternateBounds"/>
                    </mxGeometry>
                </mxCell>
                <mxCell id="gBGeZhKP0M9R41ympFXr-53" value="DrizzleOption" style="shape=table;startSize=30;container=1;collapsible=1;childLayout=tableLayout;fixedRows=1;rowLines=0;fontStyle=1;align=center;resizeLast=1;" parent="1" vertex="1">
                    <mxGeometry x="1711" y="4046" width="239" height="160" as="geometry"/>
                </mxCell>
                <mxCell id="gBGeZhKP0M9R41ympFXr-54" value="" style="shape=partialRectangle;collapsible=0;dropTarget=0;pointerEvents=0;fillColor=none;top=0;left=0;bottom=1;right=0;points=[[0,0.5],[1,0.5]];portConstraint=eastwest;" parent="gBGeZhKP0M9R41ympFXr-53" vertex="1">
                    <mxGeometry y="30" width="239" height="30" as="geometry"/>
                </mxCell>
                <mxCell id="gBGeZhKP0M9R41ympFXr-55" value="PK" style="shape=partialRectangle;connectable=0;fillColor=none;top=0;left=0;bottom=0;right=0;fontStyle=1;overflow=hidden;" parent="gBGeZhKP0M9R41ympFXr-54" vertex="1">
                    <mxGeometry width="30" height="30" as="geometry">
                        <mxRectangle width="30" height="30" as="alternateBounds"/>
                    </mxGeometry>
                </mxCell>
                <mxCell id="gBGeZhKP0M9R41ympFXr-56" value="int(11) drizzleOptionID NOT NULL" style="shape=partialRectangle;connectable=0;fillColor=none;top=0;left=0;bottom=0;right=0;align=left;spacingLeft=6;fontStyle=5;overflow=hidden;" parent="gBGeZhKP0M9R41ympFXr-54" vertex="1">
                    <mxGeometry x="30" width="209" height="30" as="geometry">
                        <mxRectangle width="209" height="30" as="alternateBounds"/>
                    </mxGeometry>
                </mxCell>
                <mxCell id="gBGeZhKP0M9R41ympFXr-73" value="" style="shape=partialRectangle;collapsible=0;dropTarget=0;pointerEvents=0;fillColor=none;top=0;left=0;bottom=0;right=0;points=[[0,0.5],[1,0.5]];portConstraint=eastwest;" parent="gBGeZhKP0M9R41ympFXr-53" vertex="1">
                    <mxGeometry y="60" width="239" height="30" as="geometry"/>
                </mxCell>
                <mxCell id="gBGeZhKP0M9R41ympFXr-74" value="FK" style="shape=partialRectangle;connectable=0;fillColor=none;top=0;left=0;bottom=0;right=0;fontStyle=0;overflow=hidden;" parent="gBGeZhKP0M9R41ympFXr-73" vertex="1">
                    <mxGeometry width="30" height="30" as="geometry">
                        <mxRectangle width="30" height="30" as="alternateBounds"/>
                    </mxGeometry>
                </mxCell>
                <mxCell id="gBGeZhKP0M9R41ympFXr-75" value="int(11) drinkOptionID NOT NULL" style="shape=partialRectangle;connectable=0;fillColor=none;top=0;left=0;bottom=0;right=0;align=left;spacingLeft=6;fontStyle=0;overflow=hidden;" parent="gBGeZhKP0M9R41ympFXr-73" vertex="1">
                    <mxGeometry x="30" width="209" height="30" as="geometry">
                        <mxRectangle width="209" height="30" as="alternateBounds"/>
                    </mxGeometry>
                </mxCell>
                <mxCell id="gBGeZhKP0M9R41ympFXr-57" value="" style="shape=partialRectangle;collapsible=0;dropTarget=0;pointerEvents=0;fillColor=none;top=0;left=0;bottom=0;right=0;points=[[0,0.5],[1,0.5]];portConstraint=eastwest;" parent="gBGeZhKP0M9R41ympFXr-53" vertex="1">
                    <mxGeometry y="90" width="239" height="30" as="geometry"/>
                </mxCell>
                <mxCell id="gBGeZhKP0M9R41ympFXr-58" value="" style="shape=partialRectangle;connectable=0;fillColor=none;top=0;left=0;bottom=0;right=0;editable=1;overflow=hidden;" parent="gBGeZhKP0M9R41ympFXr-57" vertex="1">
                    <mxGeometry width="30" height="30" as="geometry">
                        <mxRectangle width="30" height="30" as="alternateBounds"/>
                    </mxGeometry>
                </mxCell>
                <mxCell id="gBGeZhKP0M9R41ympFXr-59" value="int drizzleType NOT NULL" style="shape=partialRectangle;connectable=0;fillColor=none;top=0;left=0;bottom=0;right=0;align=left;spacingLeft=6;overflow=hidden;" parent="gBGeZhKP0M9R41ympFXr-57" vertex="1">
                    <mxGeometry x="30" width="209" height="30" as="geometry">
                        <mxRectangle width="209" height="30" as="alternateBounds"/>
                    </mxGeometry>
                </mxCell>
                <mxCell id="gBGeZhKP0M9R41ympFXr-60" value="" style="shape=partialRectangle;collapsible=0;dropTarget=0;pointerEvents=0;fillColor=none;top=0;left=0;bottom=0;right=0;points=[[0,0.5],[1,0.5]];portConstraint=eastwest;" parent="gBGeZhKP0M9R41ympFXr-53" vertex="1">
                    <mxGeometry y="120" width="239" height="30" as="geometry"/>
                </mxCell>
                <mxCell id="gBGeZhKP0M9R41ympFXr-61" value="" style="shape=partialRectangle;connectable=0;fillColor=none;top=0;left=0;bottom=0;right=0;editable=1;overflow=hidden;" parent="gBGeZhKP0M9R41ympFXr-60" vertex="1">
                    <mxGeometry width="30" height="30" as="geometry">
                        <mxRectangle width="30" height="30" as="alternateBounds"/>
                    </mxGeometry>
                </mxCell>
                <mxCell id="gBGeZhKP0M9R41ympFXr-62" value="int drizzleCount NOT NULL" style="shape=partialRectangle;connectable=0;fillColor=none;top=0;left=0;bottom=0;right=0;align=left;spacingLeft=6;overflow=hidden;" parent="gBGeZhKP0M9R41ympFXr-60" vertex="1">
                    <mxGeometry x="30" width="209" height="30" as="geometry">
                        <mxRectangle width="209" height="30" as="alternateBounds"/>
                    </mxGeometry>
                </mxCell>
                <mxCell id="gBGeZhKP0M9R41ympFXr-63" value="" style="edgeStyle=orthogonalEdgeStyle;fontSize=12;html=1;endArrow=ERzeroToMany;startArrow=ERmandOne;entryX=0;entryY=0.5;entryDx=0;entryDy=0;exitX=1;exitY=0.5;exitDx=0;exitDy=0;" parent="1" source="QwLsGsF6EvyodU2zloT3-173" target="gBGeZhKP0M9R41ympFXr-70" edge="1">
                    <mxGeometry width="100" height="100" relative="1" as="geometry">
                        <mxPoint x="1200" y="4130" as="sourcePoint"/>
                        <mxPoint x="1360" y="4410" as="targetPoint"/>
                    </mxGeometry>
                </mxCell>
                <mxCell id="gBGeZhKP0M9R41ympFXr-100" value="" style="edgeStyle=orthogonalEdgeStyle;fontSize=12;html=1;endArrow=ERzeroToMany;startArrow=ERmandOne;entryX=0;entryY=0.5;entryDx=0;entryDy=0;exitX=1;exitY=0.5;exitDx=0;exitDy=0;" parent="1" source="QwLsGsF6EvyodU2zloT3-173" target="gBGeZhKP0M9R41ympFXr-73" edge="1">
                    <mxGeometry width="100" height="100" relative="1" as="geometry">
                        <mxPoint x="1180" y="3950" as="sourcePoint"/>
                        <mxPoint x="1250" y="3980" as="targetPoint"/>
                    </mxGeometry>
                </mxCell>
                <mxCell id="2" value="Purchase" style="shape=table;startSize=30;container=1;collapsible=1;childLayout=tableLayout;fixedRows=1;rowLines=0;fontStyle=1;align=center;resizeLast=1;" parent="1" vertex="1">
                    <mxGeometry x="890" y="2990" width="260" height="160" as="geometry"/>
                </mxCell>
                <mxCell id="3" value="" style="shape=partialRectangle;collapsible=0;dropTarget=0;pointerEvents=0;fillColor=none;top=0;left=0;bottom=1;right=0;points=[[0,0.5],[1,0.5]];portConstraint=eastwest;" parent="2" vertex="1">
                    <mxGeometry y="30" width="260" height="30" as="geometry"/>
                </mxCell>
                <mxCell id="4" value="PK" style="shape=partialRectangle;connectable=0;fillColor=none;top=0;left=0;bottom=0;right=0;fontStyle=1;overflow=hidden;" parent="3" vertex="1">
                    <mxGeometry width="30" height="30" as="geometry">
                        <mxRectangle width="30" height="30" as="alternateBounds"/>
                    </mxGeometry>
                </mxCell>
                <mxCell id="5" value="purchaseID NOT NULL" style="shape=partialRectangle;connectable=0;fillColor=none;top=0;left=0;bottom=0;right=0;align=left;spacingLeft=6;fontStyle=5;overflow=hidden;" parent="3" vertex="1">
                    <mxGeometry x="30" width="230" height="30" as="geometry">
                        <mxRectangle width="230" height="30" as="alternateBounds"/>
                    </mxGeometry>
                </mxCell>
                <mxCell id="6" value="" style="shape=partialRectangle;collapsible=0;dropTarget=0;pointerEvents=0;fillColor=none;top=0;left=0;bottom=0;right=0;points=[[0,0.5],[1,0.5]];portConstraint=eastwest;" parent="2" vertex="1">
                    <mxGeometry y="60" width="260" height="30" as="geometry"/>
                </mxCell>
                <mxCell id="7" value="" style="shape=partialRectangle;connectable=0;fillColor=none;top=0;left=0;bottom=0;right=0;editable=1;overflow=hidden;" parent="6" vertex="1">
                    <mxGeometry width="30" height="30" as="geometry">
                        <mxRectangle width="30" height="30" as="alternateBounds"/>
                    </mxGeometry>
                </mxCell>
                <mxCell id="8" value="orderID NOT NULL" style="shape=partialRectangle;connectable=0;fillColor=none;top=0;left=0;bottom=0;right=0;align=left;spacingLeft=6;overflow=hidden;" parent="6" vertex="1">
                    <mxGeometry x="30" width="230" height="30" as="geometry">
                        <mxRectangle width="230" height="30" as="alternateBounds"/>
                    </mxGeometry>
                </mxCell>
                <mxCell id="9" value="" style="shape=partialRectangle;collapsible=0;dropTarget=0;pointerEvents=0;fillColor=none;top=0;left=0;bottom=0;right=0;points=[[0,0.5],[1,0.5]];portConstraint=eastwest;" parent="2" vertex="1">
                    <mxGeometry y="90" width="260" height="30" as="geometry"/>
                </mxCell>
                <mxCell id="10" value="" style="shape=partialRectangle;connectable=0;fillColor=none;top=0;left=0;bottom=0;right=0;editable=1;overflow=hidden;" parent="9" vertex="1">
                    <mxGeometry width="30" height="30" as="geometry">
                        <mxRectangle width="30" height="30" as="alternateBounds"/>
                    </mxGeometry>
                </mxCell>
                <mxCell id="11" value="userId NOT NULL" style="shape=partialRectangle;connectable=0;fillColor=none;top=0;left=0;bottom=0;right=0;align=left;spacingLeft=6;overflow=hidden;" parent="9" vertex="1">
                    <mxGeometry x="30" width="230" height="30" as="geometry">
                        <mxRectangle width="230" height="30" as="alternateBounds"/>
                    </mxGeometry>
                </mxCell>
                <mxCell id="12" value="" style="shape=partialRectangle;collapsible=0;dropTarget=0;pointerEvents=0;fillColor=none;top=0;left=0;bottom=0;right=0;points=[[0,0.5],[1,0.5]];portConstraint=eastwest;" parent="2" vertex="1">
                    <mxGeometry y="120" width="260" height="30" as="geometry"/>
                </mxCell>
                <mxCell id="13" value="" style="shape=partialRectangle;connectable=0;fillColor=none;top=0;left=0;bottom=0;right=0;editable=1;overflow=hidden;" parent="12" vertex="1">
                    <mxGeometry width="30" height="30" as="geometry">
                        <mxRectangle width="30" height="30" as="alternateBounds"/>
                    </mxGeometry>
                </mxCell>
                <mxCell id="14" value="paymentID NOT NULL" style="shape=partialRectangle;connectable=0;fillColor=none;top=0;left=0;bottom=0;right=0;align=left;spacingLeft=6;overflow=hidden;" parent="12" vertex="1">
                    <mxGeometry x="30" width="230" height="30" as="geometry">
                        <mxRectangle width="230" height="30" as="alternateBounds"/>
                    </mxGeometry>
                </mxCell>
                <mxCell id="15" value="" style="edgeStyle=orthogonalEdgeStyle;fontSize=12;html=1;endArrow=ERmandOne;startArrow=ERmandOne;entryX=0;entryY=0.5;entryDx=0;entryDy=0;exitX=1;exitY=0.5;exitDx=0;exitDy=0;" parent="1" source="6" target="QwLsGsF6EvyodU2zloT3-46" edge="1">
                    <mxGeometry width="100" height="100" relative="1" as="geometry">
                        <mxPoint x="240" y="4310" as="sourcePoint"/>
                        <mxPoint x="340" y="4210" as="targetPoint"/>
                        <Array as="points">
                            <mxPoint x="1200" y="3065"/>
                            <mxPoint x="1200" y="3360"/>
                            <mxPoint x="840" y="3360"/>
                            <mxPoint x="840" y="3425"/>
                        </Array>
                    </mxGeometry>
                </mxCell>
                <mxCell id="32" value="" style="edgeStyle=orthogonalEdgeStyle;fontSize=12;html=1;endArrow=ERmandOne;startArrow=ERmandOne;exitX=1;exitY=0.5;exitDx=0;exitDy=0;entryX=0;entryY=0.5;entryDx=0;entryDy=0;" parent="1" source="GtMtXowy6BIwULXVPBNg-412" target="12" edge="1">
                    <mxGeometry width="100" height="100" relative="1" as="geometry">
                        <mxPoint x="-40" y="3880" as="sourcePoint"/>
                        <mxPoint x="60" y="3780" as="targetPoint"/>
                    </mxGeometry>
                </mxCell>
                <mxCell id="38" value="" style="edgeStyle=orthogonalEdgeStyle;fontSize=12;html=1;endArrow=ERmandOne;startArrow=ERmandOne;exitX=0;exitY=0.5;exitDx=0;exitDy=0;entryX=1;entryY=0.5;entryDx=0;entryDy=0;" parent="1" source="GtMtXowy6BIwULXVPBNg-587" target="gBGeZhKP0M9R41ympFXr-19" edge="1">
                    <mxGeometry width="100" height="100" relative="1" as="geometry">
                        <mxPoint x="1100" y="3210" as="sourcePoint"/>
                        <mxPoint x="1200" y="3110" as="targetPoint"/>
                    </mxGeometry>
                </mxCell>
                <mxCell id="39" value="" style="edgeStyle=orthogonalEdgeStyle;fontSize=12;html=1;endArrow=ERmandOne;startArrow=ERmandOne;exitX=0;exitY=0.5;exitDx=0;exitDy=0;entryX=1;entryY=0.5;entryDx=0;entryDy=0;" parent="1" source="GtMtXowy6BIwULXVPBNg-571" target="QwLsGsF6EvyodU2zloT3-206" edge="1">
                    <mxGeometry width="100" height="100" relative="1" as="geometry">
                        <mxPoint x="1030" y="3130" as="sourcePoint"/>
                        <mxPoint x="1130" y="3030" as="targetPoint"/>
                    </mxGeometry>
                </mxCell>
                <mxCell id="40" value="" style="edgeStyle=orthogonalEdgeStyle;fontSize=12;html=1;endArrow=ERmandOne;startArrow=ERmandOne;entryX=1;entryY=0.5;entryDx=0;entryDy=0;" parent="1" source="GtMtXowy6BIwULXVPBNg-540" target="QwLsGsF6EvyodU2zloT3-209" edge="1">
                    <mxGeometry width="100" height="100" relative="1" as="geometry">
                        <mxPoint x="900" y="2920" as="sourcePoint"/>
                        <mxPoint x="1270" y="3630" as="targetPoint"/>
                    </mxGeometry>
                </mxCell>
                <mxCell id="42" value="" style="edgeStyle=orthogonalEdgeStyle;fontSize=12;html=1;endArrow=ERmandOne;startArrow=ERmandOne;exitX=0;exitY=0.5;exitDx=0;exitDy=0;entryX=1;entryY=0.5;entryDx=0;entryDy=0;" parent="1" source="GtMtXowy6BIwULXVPBNg-848" target="QwLsGsF6EvyodU2zloT3-197" edge="1">
                    <mxGeometry width="100" height="100" relative="1" as="geometry">
                        <mxPoint x="970" y="2480" as="sourcePoint"/>
                        <mxPoint x="1290" y="3170" as="targetPoint"/>
                    </mxGeometry>
                </mxCell>
            </root>
        </mxGraphModel>
    </diagram>
</mxfile>